<svg width="1383" height="422" viewBox="0 0 1383 422" fill="none" xmlns="http://www.w3.org/2000/svg">
<rect x="1348" y="117" width="10" height="162" fill="#D9D9D9"/>
<rect x="15" y="347" width="357" height="14" fill="black"/>
<path d="M1160.49 138.926C1143.25 141.022 1126.86 143.007 1110.12 145.048C1109.88 146.316 1109.71 147.622 1109.38 148.872C1107.75 154.866 1102.28 157.145 1097.05 153.56C1090.79 149.277 1087.47 142.989 1086.35 135.488C1084.51 123.151 1082.53 110.833 1080.69 98.4966C1079.85 92.8891 1076.98 88.9363 1072.21 85.8476C1070.34 84.6342 1069.53 81.7845 1068.23 79.6702C1070.61 78.898 1072.96 77.6111 1075.37 77.5191C1078.23 77.4272 1081.39 77.7765 1083.94 78.9716C1101.44 87.0978 1119.32 81.4719 1137.03 80.6078C1144.59 80.2401 1152.12 79.1554 1160.4 78.3281C1160.4 66.8925 1160.64 55.604 1160.14 44.3523C1160.07 42.7711 1156.47 41.3187 1154.45 39.8663C1152.58 38.5058 1150.67 37.2188 1148.78 35.8951C1150.3 34.2956 1151.53 32.1077 1153.39 31.1885C1163.1 26.4083 1174.94 28.5962 1182.28 36.5202C1183.55 37.8991 1184.94 40.9694 1184.28 42.0541C1179.84 49.3714 1181.84 57.3138 1181.36 64.9988C1181.14 68.492 1181.33 72.022 1181.33 76.5999C1188.65 76.0667 1196.12 75.6255 1203.56 74.9452C1213.85 74.0076 1224.13 72.978 1234.4 71.7462C1237.43 71.3785 1240.6 70.6615 1243.24 69.2458C1248.07 66.6719 1252.59 66.7086 1257.1 69.4664C1261.75 72.3161 1266.54 75.0371 1270.8 78.4016C1275.17 81.8764 1274.45 84.1194 1270.06 87.5758C1267.35 89.7269 1264.72 92.6501 1263.4 95.794C1258.32 108.002 1253.8 120.449 1249.01 132.767C1247.14 137.565 1243.32 138.392 1238.55 138.264C1220.22 137.823 1201.89 137.731 1183.55 137.381C1179.75 137.308 1179.69 139.532 1179.69 142.327C1179.75 156.998 1180.21 171.706 1179.51 186.341C1179.16 193.805 1177.1 201.288 1174.97 208.495C1174.26 210.904 1170.75 214.231 1168.81 214.048C1166.55 213.827 1163.39 210.536 1162.77 208.036C1161.32 202.244 1160.64 196.14 1160.55 190.165C1160.31 173.6 1160.49 156.998 1160.49 138.926ZM1180.54 89.065C1180.54 100.354 1180.41 110.686 1180.72 121C1180.76 122.177 1183.31 124.328 1184.61 124.254C1200.89 123.353 1217.16 122.14 1233.72 120.982C1236.56 109.068 1239.39 97.2648 1242.57 84.0091C1221.27 85.7373 1201.37 87.3552 1180.54 89.065ZM1099.09 96.6213C1101 107.266 1102.61 117.636 1104.96 127.839C1105.33 129.457 1109.07 131.498 1111.09 131.333C1127.37 130.027 1143.62 128.225 1159.99 126.571C1159.99 114.657 1159.99 103.111 1159.99 91.2529C1139.47 93.073 1119.52 94.8196 1099.09 96.6213Z" fill="#E3E3E3"/>
<path d="M1237.81 298.215C1237.81 277.697 1237.61 257.179 1237.94 236.661C1238.03 230.502 1236.27 226.255 1231.06 222.964C1229.35 221.88 1228.72 219.103 1227.59 217.081C1229.68 216.382 1232.01 214.728 1233.83 215.151C1241.76 217.008 1250.7 215.353 1257.23 222.339C1259.91 225.207 1260.79 227.156 1258.77 230.87C1257.1 233.94 1256.09 237.783 1256.08 241.276C1255.89 282.514 1255.95 323.734 1255.95 364.971C1255.95 366.92 1256 368.888 1255.86 370.836C1255.54 374.679 1254.83 378.485 1250.15 379.165C1245.52 379.827 1241.89 377.639 1240.36 373.429C1238.93 369.476 1237.99 365.119 1237.94 360.945C1237.7 340.041 1237.83 319.119 1237.83 298.215C1237.83 298.215 1237.81 298.215 1237.81 298.215Z" fill="#E3E3E3"/>
<path d="M1101.34 227.138C1108.52 230.153 1115.7 232.892 1122.62 236.165C1126.03 237.783 1126.44 240.632 1125.15 244.567C1123.63 249.255 1122.91 254.421 1122.91 259.385C1122.91 277.587 1122.58 295.696 1118.09 313.493C1112.43 335.923 1096.59 350.613 1079.5 364.218C1077.96 365.449 1074.58 364.365 1072.05 364.365C1072.71 361.993 1072.69 358.996 1074.16 357.323C1086.14 343.718 1097.23 329.433 1100.88 311.268C1103.29 299.281 1104.12 286.926 1104.91 274.7C1105.49 265.544 1104.72 256.333 1104.91 247.141C1105.02 242.214 1103.29 239.125 1098.79 236.937C1096.94 236.036 1095.89 233.425 1094.5 231.587C1096.44 230.318 1098.39 229.05 1101.34 227.138Z" fill="#E3E3E3"/>
<path d="M1184.85 290.162C1184.85 303.473 1184.92 316.766 1184.8 330.076C1184.78 332.761 1184.61 335.721 1183.46 338.037C1182.19 340.574 1179.99 343.737 1177.64 344.307C1175.62 344.803 1172.17 342.578 1170.48 340.593C1166.03 335.335 1163.81 329.249 1165.83 322.116C1166.46 319.909 1166.38 317.464 1166.38 315.129C1166.42 291.449 1166.35 267.787 1166.49 244.107C1166.53 239.309 1165.26 235.907 1160.62 233.775C1159.06 233.058 1158.29 230.649 1157.15 228.995C1158.88 227.928 1160.6 225.979 1162.33 225.961C1170.68 225.906 1178.61 227.763 1185.22 233.278C1188.04 235.632 1189.16 238.187 1186.81 241.919C1185.47 244.052 1184.98 247.049 1184.94 249.66C1184.76 263.154 1184.85 276.649 1184.85 290.162Z" fill="#E3E3E3"/>
<path d="M901.979 309H897.091L896.852 307.394C895.576 308.692 894.015 309.342 892.169 309.342C890.369 309.342 888.797 308.681 887.452 307.359C886.131 306.038 885.47 304.215 885.47 301.891V288.014H891.075V301.549C891.075 302.415 891.337 303.098 891.861 303.6C892.385 304.101 893.012 304.352 893.741 304.352C894.448 304.352 895.063 304.101 895.587 303.6C896.111 303.098 896.373 302.415 896.373 301.549V288.014H901.979V309ZM915.377 288.014H921.119L916.539 298.473L921.188 309H915.411L913.292 304.01L912.745 301.515H912.574L912.062 304.01L909.942 309H904.166L908.814 298.473L904.2 288.014H909.942L912.062 292.936L912.574 295.431H912.745L913.292 292.936L915.377 288.014ZM948.907 309H943.985L943.712 307.359C942.39 308.772 940.727 309.479 938.722 309.479C936.83 309.479 935.178 308.795 933.766 307.428C932.376 306.061 931.681 304.146 931.681 301.686V295.328C931.681 292.867 932.376 290.953 933.766 289.586C935.178 288.196 936.83 287.501 938.722 287.501C940.499 287.501 942.026 288.071 943.302 289.21V282.75H948.907V309ZM937.286 301.344C937.286 302.324 937.582 303.098 938.175 303.668C938.767 304.215 939.474 304.488 940.294 304.488C941.114 304.488 941.821 304.215 942.413 303.668C943.006 303.098 943.302 302.324 943.302 301.344V295.67C943.302 294.69 943.006 293.927 942.413 293.38C941.821 292.81 941.114 292.525 940.294 292.525C939.474 292.525 938.767 292.81 938.175 293.38C937.582 293.927 937.286 294.69 937.286 295.67V301.344ZM957.35 300.489V301.344C957.35 302.324 957.634 303.098 958.204 303.668C958.797 304.215 959.469 304.488 960.221 304.488C960.882 304.488 961.497 304.272 962.066 303.839C962.659 303.406 963.012 302.848 963.126 302.164L968.561 304.044C968.105 305.799 967.171 307.143 965.758 308.077C964.368 309.011 962.568 309.479 960.357 309.479C958.033 309.479 956.017 308.795 954.308 307.428C952.599 306.061 951.744 304.146 951.744 301.686V295.328C951.744 292.867 952.599 290.953 954.308 289.586C956.017 288.196 958.033 287.501 960.357 287.501C962.682 287.501 964.698 288.196 966.407 289.586C968.116 290.953 968.971 292.867 968.971 295.328V300.489H957.35ZM957.35 295.67H963.365C963.365 294.69 963.069 293.927 962.477 293.38C961.884 292.81 961.178 292.525 960.357 292.525C959.537 292.525 958.831 292.81 958.238 293.38C957.646 293.927 957.35 294.69 957.35 295.67ZM979.635 304.488C980.273 304.488 980.774 304.329 981.139 304.01C981.503 303.691 981.686 303.269 981.686 302.745C981.686 302.13 981.332 301.651 980.626 301.31C979.92 300.945 979.065 300.649 978.062 300.421C977.06 300.17 976.057 299.863 975.055 299.498C974.052 299.111 973.198 298.484 972.491 297.618C971.785 296.729 971.432 295.59 971.432 294.2C971.432 292.081 972.195 290.44 973.722 289.278C975.248 288.093 977.06 287.501 979.156 287.501C981.321 287.501 983.098 288.036 984.488 289.107C985.878 290.156 986.801 291.671 987.257 293.653L982.13 294.815C982.016 294.132 981.674 293.585 981.104 293.175C980.535 292.742 979.897 292.525 979.19 292.525C978.53 292.525 977.994 292.696 977.584 293.038C977.174 293.38 976.969 293.779 976.969 294.234C976.969 294.576 977.162 294.861 977.55 295.089C977.937 295.317 978.438 295.51 979.054 295.67C979.669 295.807 980.353 295.966 981.104 296.148C981.856 296.331 982.597 296.581 983.326 296.9C984.078 297.219 984.762 297.607 985.377 298.062C985.992 298.518 986.493 299.145 986.881 299.942C987.268 300.74 987.462 301.674 987.462 302.745C987.462 304.864 986.664 306.516 985.069 307.701C983.497 308.886 981.64 309.479 979.498 309.479C977.288 309.479 975.476 309.011 974.063 308.077C972.651 307.143 971.716 305.799 971.261 304.044L976.695 302.164C976.809 302.848 977.162 303.406 977.755 303.839C978.347 304.272 978.974 304.488 979.635 304.488ZM990.333 288.014H995.938V309H990.333V288.014ZM990.333 281.007H995.938V285.553H990.333V281.007ZM1000.69 314.264L1004.18 310.777C1004.59 311.165 1005.33 311.358 1006.4 311.358C1006.4 311.358 1006.49 311.358 1006.67 311.358C1007.45 311.358 1008.23 311.017 1009.03 310.333C1009.83 309.649 1010.29 308.806 1010.43 307.804C1009.15 308.92 1007.64 309.479 1005.88 309.479C1003.97 309.479 1002.32 308.795 1000.93 307.428C999.539 306.061 998.844 304.146 998.844 301.686V295.328C998.844 292.867 999.539 290.953 1000.93 289.586C1002.34 288.196 1003.99 287.501 1005.88 287.501C1007.89 287.501 1009.55 288.219 1010.88 289.654L1011.15 288.014H1016.07V306.471C1016.07 309.501 1015.25 311.848 1013.61 313.512C1011.99 315.175 1009.68 316.007 1006.67 316.007C1004.19 316.007 1002.19 315.426 1000.69 314.264ZM1004.45 295.67V301.344C1004.45 302.324 1004.75 303.098 1005.34 303.668C1005.93 304.215 1006.64 304.488 1007.46 304.488C1008.28 304.488 1008.98 304.215 1009.58 303.668C1010.17 303.098 1010.46 302.324 1010.46 301.344V295.67C1010.46 294.69 1010.17 293.927 1009.58 293.38C1008.98 292.81 1008.28 292.525 1007.46 292.525C1006.64 292.525 1005.93 292.81 1005.34 293.38C1004.75 293.927 1004.45 294.69 1004.45 295.67ZM1019.42 288.014H1024.31L1024.58 289.518C1025.86 288.173 1027.42 287.501 1029.26 287.501C1031.06 287.501 1032.62 288.173 1033.95 289.518C1035.27 290.862 1035.93 292.719 1035.93 295.089V309H1030.36V295.465C1030.36 294.599 1030.1 293.915 1029.57 293.414C1029.05 292.913 1028.42 292.662 1027.69 292.662C1026.96 292.662 1026.34 292.913 1025.81 293.414C1025.29 293.915 1025.03 294.599 1025.03 295.465V309H1019.42V288.014ZM1048.23 281.007H1052.1V312.691H1048.23V281.007ZM1055.58 281.007H1059.44V312.691H1055.58V281.007ZM1086.55 299.088V309H1080.77V282.066C1080.77 282.066 1086.01 282.066 1096.5 282.066V287.228H1086.55V293.927H1095.67V299.088H1086.55ZM1099.4 288.014H1104.29L1104.56 289.518C1105.84 288.173 1107.4 287.501 1109.24 287.501C1110.34 287.501 1111.36 287.638 1112.32 287.911L1110 292.936C1109.54 292.753 1109.02 292.662 1108.42 292.662C1107.47 292.662 1106.66 292.924 1106 293.448C1105.34 293.95 1105.01 294.622 1105.01 295.465V309H1099.4V288.014ZM1125.07 295.67C1125.07 294.69 1124.77 293.927 1124.18 293.38C1123.59 292.81 1122.88 292.525 1122.06 292.525C1121.24 292.525 1120.53 292.81 1119.94 293.38C1119.35 293.927 1119.05 294.69 1119.05 295.67V301.344C1119.05 302.324 1119.35 303.098 1119.94 303.668C1120.53 304.215 1121.24 304.488 1122.06 304.488C1122.88 304.488 1123.59 304.215 1124.18 303.668C1124.77 303.098 1125.07 302.324 1125.07 301.344V295.67ZM1113.45 295.328C1113.45 292.867 1114.3 290.953 1116.01 289.586C1117.72 288.196 1119.74 287.501 1122.06 287.501C1124.39 287.501 1126.4 288.196 1128.11 289.586C1129.82 290.953 1130.67 292.867 1130.67 295.328V301.686C1130.67 304.146 1129.82 306.061 1128.11 307.428C1126.4 308.795 1124.39 309.479 1122.06 309.479C1119.74 309.479 1117.72 308.795 1116.01 307.428C1114.3 306.061 1113.45 304.146 1113.45 301.686V295.328ZM1133.75 288.014H1138.64L1138.91 289.518C1140.19 288.173 1141.75 287.501 1143.59 287.501C1145.39 287.501 1146.96 288.173 1148.28 289.518C1149.6 290.862 1150.26 292.719 1150.26 295.089V309H1144.69V295.465C1144.69 294.599 1144.43 293.915 1143.9 293.414C1143.38 292.913 1142.75 292.662 1142.02 292.662C1141.29 292.662 1140.67 292.913 1140.14 293.414C1139.62 293.915 1139.36 294.599 1139.36 295.465V309H1133.75V288.014ZM1161.23 309.479C1159.27 309.479 1157.57 308.863 1156.14 307.633C1154.73 306.402 1154.02 304.693 1154.02 302.506V292.833H1153.03V288.014H1154.02V282.75H1159.62V288.014H1162.6V292.833H1159.62V302.506C1159.62 303.827 1160.1 304.488 1161.06 304.488C1161.36 304.488 1161.68 304.431 1162.02 304.317L1164.34 309.103C1163.45 309.353 1162.42 309.479 1161.23 309.479ZM1170.63 300.489V301.344C1170.63 302.324 1170.92 303.098 1171.49 303.668C1172.08 304.215 1172.75 304.488 1173.5 304.488C1174.16 304.488 1174.78 304.272 1175.35 303.839C1175.94 303.406 1176.29 302.848 1176.41 302.164L1181.84 304.044C1181.39 305.799 1180.45 307.143 1179.04 308.077C1177.65 309.011 1175.85 309.479 1173.64 309.479C1171.31 309.479 1169.3 308.795 1167.59 307.428C1165.88 306.061 1165.03 304.146 1165.03 301.686V295.328C1165.03 292.867 1165.88 290.953 1167.59 289.586C1169.3 288.196 1171.31 287.501 1173.64 287.501C1175.96 287.501 1177.98 288.196 1179.69 289.586C1181.4 290.953 1182.25 292.867 1182.25 295.328V300.489H1170.63ZM1170.63 295.67H1176.65C1176.65 294.69 1176.35 293.927 1175.76 293.38C1175.17 292.81 1174.46 292.525 1173.64 292.525C1172.82 292.525 1172.11 292.81 1171.52 293.38C1170.93 293.927 1170.63 294.69 1170.63 295.67ZM1185.29 288.014H1190.18L1190.46 289.518C1191.73 288.173 1193.29 287.501 1195.14 287.501C1196.94 287.501 1198.5 288.173 1199.82 289.518C1201.14 290.862 1201.8 292.719 1201.8 295.089V309H1196.23V295.465C1196.23 294.599 1195.97 293.915 1195.45 293.414C1194.92 292.913 1194.29 292.662 1193.57 292.662C1192.84 292.662 1192.21 292.913 1191.69 293.414C1191.16 293.915 1190.9 294.599 1190.9 295.465V309H1185.29V288.014ZM1221.73 309H1216.81L1216.53 307.359C1215.21 308.772 1213.55 309.479 1211.54 309.479C1209.65 309.479 1208 308.795 1206.59 307.428C1205.2 306.061 1204.5 304.146 1204.5 301.686V295.328C1204.5 292.867 1205.2 290.953 1206.59 289.586C1208 288.196 1209.65 287.501 1211.54 287.501C1213.32 287.501 1214.85 288.071 1216.12 289.21V282.75H1221.73V309ZM1210.11 301.344C1210.11 302.324 1210.4 303.098 1211 303.668C1211.59 304.215 1212.3 304.488 1213.12 304.488C1213.94 304.488 1214.64 304.215 1215.24 303.668C1215.83 303.098 1216.12 302.324 1216.12 301.344V295.67C1216.12 294.69 1215.83 293.927 1215.24 293.38C1214.64 292.81 1213.94 292.525 1213.12 292.525C1212.3 292.525 1211.59 292.81 1211 293.38C1210.4 293.927 1210.11 294.69 1210.11 295.67V301.344ZM1242.78 303.805C1243.65 303.805 1244.4 303.486 1245.04 302.848C1245.68 302.21 1246 301.321 1246 300.182V290.885C1246 289.745 1245.68 288.857 1245.04 288.219C1244.4 287.558 1243.65 287.228 1242.78 287.228H1239.91V303.805H1242.78ZM1242.78 309H1234.14V282.066H1242.78C1245.77 282.066 1248.01 282.887 1249.52 284.527C1251.02 286.145 1251.77 288.492 1251.77 291.568V299.464C1251.77 302.54 1251.02 304.898 1249.52 306.539C1248.01 308.18 1245.77 309 1242.78 309ZM1259.77 300.489V301.344C1259.77 302.324 1260.06 303.098 1260.63 303.668C1261.22 304.215 1261.89 304.488 1262.64 304.488C1263.3 304.488 1263.92 304.272 1264.49 303.839C1265.08 303.406 1265.43 302.848 1265.55 302.164L1270.98 304.044C1270.53 305.799 1269.59 307.143 1268.18 308.077C1266.79 309.011 1264.99 309.479 1262.78 309.479C1260.46 309.479 1258.44 308.795 1256.73 307.428C1255.02 306.061 1254.17 304.146 1254.17 301.686V295.328C1254.17 292.867 1255.02 290.953 1256.73 289.586C1258.44 288.196 1260.46 287.501 1262.78 287.501C1265.1 287.501 1267.12 288.196 1268.83 289.586C1270.54 290.953 1271.39 292.867 1271.39 295.328V300.489H1259.77ZM1259.77 295.67H1265.79C1265.79 294.69 1265.49 293.927 1264.9 293.38C1264.31 292.81 1263.6 292.525 1262.78 292.525C1261.96 292.525 1261.25 292.81 1260.66 293.38C1260.07 293.927 1259.77 294.69 1259.77 295.67ZM1281.78 301.925L1282.33 298.746L1285.03 288.014H1290.7L1284.72 309H1278.6L1272.62 288.014H1278.3L1281.03 298.746L1281.54 301.925C1281.54 301.925 1281.62 301.925 1281.78 301.925Z" fill="#FF0000"/>
<path d="M94.8936 174.997C94.8936 165.713 96.7279 158.563 100.396 153.547C104.14 148.531 109.531 146.022 116.568 146.022H119.376V157.253H116.568C114.247 157.253 112.151 158.638 110.279 161.408C108.482 164.104 107.584 167.847 107.584 172.639C107.584 185.067 104.664 193.565 98.8242 198.132C104.664 202.624 107.584 211.047 107.584 223.4C107.584 228.192 108.482 231.973 110.279 234.743C112.151 237.438 114.247 238.786 116.568 238.786H119.376V250.129H116.568C109.531 250.129 104.14 247.583 100.396 242.492C96.7279 237.476 94.8936 230.326 94.8936 221.042C94.8936 215.651 94.2197 211.421 92.8721 208.352C91.5244 205.282 89.9896 203.747 88.2676 203.747H85.3477V192.404H88.2676C89.9896 192.404 91.5244 190.869 92.8721 187.8C94.2197 184.655 94.8936 180.388 94.8936 174.997ZM987.491 174.997C987.491 180.388 988.165 184.655 989.513 187.8C990.935 190.869 992.507 192.404 994.229 192.404H997.037V203.747H994.229C992.507 203.747 990.935 205.282 989.513 208.352C988.165 211.421 987.491 215.651 987.491 221.042C987.491 230.326 985.657 237.476 981.988 242.492C978.32 247.583 972.966 250.129 965.929 250.129H963.009V238.786H965.929C968.25 238.786 970.309 237.438 972.105 234.743C973.977 231.973 974.913 228.192 974.913 223.4C974.913 211.047 977.833 202.624 983.673 198.132C977.833 193.565 974.913 185.067 974.913 172.639C974.913 167.847 973.977 164.104 972.105 161.408C970.309 158.638 968.25 157.253 965.929 157.253H963.009V146.022H965.929C972.966 146.022 978.32 148.531 981.988 153.547C985.657 158.563 987.491 165.713 987.491 174.997Z" fill="black"/>
<path d="M172.496 210.036V212.844C172.496 216.063 173.432 218.609 175.304 220.48C177.25 222.277 179.459 223.176 181.93 223.176C184.101 223.176 186.122 222.465 187.994 221.042C189.941 219.619 191.101 217.785 191.476 215.539L209.332 221.716C207.835 227.481 204.765 231.898 200.123 234.968C195.556 238.037 189.641 239.572 182.379 239.572C174.742 239.572 168.116 237.326 162.501 232.834C156.886 228.342 154.078 222.053 154.078 213.967V193.078C154.078 184.992 156.886 178.703 162.501 174.211C168.116 169.644 174.742 167.36 182.379 167.36C190.016 167.36 196.642 169.644 202.257 174.211C207.872 178.703 210.68 184.992 210.68 193.078V210.036H172.496ZM172.496 194.201H192.262C192.262 190.982 191.288 188.474 189.342 186.677C187.395 184.805 185.074 183.869 182.379 183.869C179.684 183.869 177.363 184.805 175.416 186.677C173.469 188.474 172.496 190.982 172.496 194.201ZM220.562 169.045H236.622L237.521 173.986C241.713 169.569 246.842 167.36 252.906 167.36C256.5 167.36 259.869 167.81 263.014 168.708L255.377 185.217C253.88 184.618 252.158 184.318 250.211 184.318C247.066 184.318 244.409 185.179 242.237 186.901C240.066 188.549 238.98 190.757 238.98 193.527V238H220.562V169.045ZM268.741 169.045H287.159V238H268.741V169.045ZM268.741 146.022H287.159V160.959H268.741V146.022ZM317.818 220.48C319.765 222.277 321.974 223.176 324.444 223.176C326.915 223.176 329.199 222.277 331.295 220.48C333.466 218.609 334.776 216.213 335.226 213.293L353.194 219.357C351.697 225.871 348.478 230.887 343.536 234.406C338.67 237.85 332.455 239.572 324.894 239.572C317.257 239.572 310.631 237.326 305.016 232.834C299.4 228.342 296.593 222.053 296.593 213.967V193.078C296.593 184.992 299.4 178.703 305.016 174.211C310.631 169.644 317.257 167.36 324.894 167.36C332.306 167.36 338.37 169.12 343.087 172.639C347.879 176.083 351.023 181.062 352.521 187.575L334.664 193.752C334.215 190.832 332.979 188.474 330.958 186.677C328.937 184.805 326.728 183.869 324.332 183.869C321.936 183.869 319.765 184.805 317.818 186.677C315.947 188.474 315.011 190.982 315.011 194.201V212.844C315.011 216.063 315.947 218.609 317.818 220.48ZM380.821 238H362.403V223.063H380.821V238ZM392.052 169.045H408.111L409.01 173.986C413.202 169.569 418.331 167.36 424.396 167.36C430.31 167.36 435.439 169.569 439.781 173.986C444.124 178.404 446.295 184.506 446.295 192.292V238H427.989V193.527C427.989 190.682 427.128 188.436 425.406 186.789C423.684 185.142 421.625 184.318 419.229 184.318C416.834 184.318 414.775 185.142 413.053 186.789C411.331 188.436 410.47 190.682 410.47 193.527V238H392.052V169.045ZM473.697 212.844C473.697 216.063 474.671 218.609 476.617 220.48C478.564 222.277 480.885 223.176 483.58 223.176C486.275 223.176 488.596 222.277 490.543 220.48C492.49 218.609 493.463 216.063 493.463 212.844V194.201C493.463 190.982 492.49 188.474 490.543 186.677C488.596 184.805 486.275 183.869 483.58 183.869C480.885 183.869 478.564 184.805 476.617 186.677C474.671 188.474 473.697 190.982 473.697 194.201V212.844ZM494.811 232.609C490.468 237.251 485.003 239.572 478.414 239.572C472.2 239.572 466.772 237.326 462.13 232.834C457.563 228.342 455.279 222.053 455.279 213.967V193.078C455.279 184.992 457.563 178.703 462.13 174.211C466.772 169.644 472.2 167.36 478.414 167.36C484.928 167.36 490.393 169.719 494.811 174.436L495.709 169.045H511.881V238H495.709L494.811 232.609ZM523.111 146.022H541.529V194.763H544.337L556.241 169.045H574.996L558.6 203.073L576.456 238H556.578L543.663 211.833H541.529V238H523.111V146.022ZM599.029 212.844C599.029 216.063 600.003 218.609 601.949 220.48C603.896 222.277 606.217 223.176 608.912 223.176C611.607 223.176 613.928 222.277 615.875 220.48C617.822 218.609 618.795 216.063 618.795 212.844V194.201C618.795 190.982 617.822 188.474 615.875 186.677C613.928 184.805 611.607 183.869 608.912 183.869C606.217 183.869 603.896 184.805 601.949 186.677C600.003 188.474 599.029 190.982 599.029 194.201V212.844ZM620.143 232.609C615.8 237.251 610.335 239.572 603.746 239.572C597.532 239.572 592.104 237.326 587.462 232.834C582.895 228.342 580.611 222.053 580.611 213.967V193.078C580.611 184.992 582.895 178.703 587.462 174.211C592.104 169.644 597.532 167.36 603.746 167.36C610.26 167.36 615.725 169.719 620.143 174.436L621.041 169.045H637.213V238H621.041L620.143 232.609ZM652.711 255.295L664.166 243.84C665.514 245.113 667.947 245.749 671.466 245.749C671.466 245.749 671.765 245.749 672.364 245.749C674.91 245.749 677.493 244.626 680.113 242.38C682.734 240.134 684.269 237.364 684.718 234.069C680.525 237.738 675.546 239.572 669.781 239.572C663.492 239.572 658.064 237.326 653.497 232.834C648.93 228.342 646.646 222.053 646.646 213.967V193.078C646.646 184.992 648.93 178.703 653.497 174.211C658.139 169.644 663.567 167.36 669.781 167.36C676.37 167.36 681.835 169.719 686.178 174.436L687.076 169.045H703.248V229.689C703.248 239.647 700.553 247.359 695.162 252.824C689.846 258.29 682.247 261.022 672.364 261.022C664.203 261.022 657.652 259.113 652.711 255.295ZM665.064 194.201V212.844C665.064 216.063 666.038 218.609 667.984 220.48C669.931 222.277 672.252 223.176 674.947 223.176C677.643 223.176 679.964 222.277 681.91 220.48C683.857 218.609 684.83 216.063 684.83 212.844V194.201C684.83 190.982 683.857 188.474 681.91 186.677C679.964 184.805 677.643 183.869 674.947 183.869C672.252 183.869 669.931 184.805 667.984 186.677C666.038 188.474 665.064 190.982 665.064 194.201ZM730.987 212.844C730.987 216.063 731.961 218.609 733.907 220.48C735.854 222.277 738.175 223.176 740.87 223.176C743.565 223.176 745.886 222.277 747.833 220.48C749.78 218.609 750.753 216.063 750.753 212.844V194.201C750.753 190.982 749.78 188.474 747.833 186.677C745.886 184.805 743.565 183.869 740.87 183.869C738.175 183.869 735.854 184.805 733.907 186.677C731.961 188.474 730.987 190.982 730.987 194.201V212.844ZM752.101 232.609C747.758 237.251 742.293 239.572 735.704 239.572C729.49 239.572 724.062 237.326 719.42 232.834C714.853 228.342 712.569 222.053 712.569 213.967V193.078C712.569 184.992 714.853 178.703 719.42 174.211C724.062 169.644 729.49 167.36 735.704 167.36C742.218 167.36 747.683 169.719 752.101 174.436L752.999 169.045H769.171V238H752.999L752.101 232.609ZM809.151 171.291H830.602C831.35 175.484 833.821 189.971 838.014 214.753H838.575L845.538 169.045H864.63L851.715 238H827.232L821.617 204.196L820.045 192.629H819.708L818.248 204.196L812.633 238H788.15L775.235 169.045H794.215L801.178 214.753H801.852C802.525 210.56 803.686 203.597 805.333 193.864C806.98 184.056 808.253 176.532 809.151 171.291ZM887.765 212.844C887.765 216.063 888.738 218.609 890.685 220.48C892.631 222.277 894.952 223.176 897.647 223.176C900.343 223.176 902.664 222.277 904.61 220.48C906.557 218.609 907.53 216.063 907.53 212.844V194.201C907.53 190.982 906.557 188.474 904.61 186.677C902.664 184.805 900.343 183.869 897.647 183.869C894.952 183.869 892.631 184.805 890.685 186.677C888.738 188.474 887.765 190.982 887.765 194.201V212.844ZM908.878 232.609C904.535 237.251 899.07 239.572 892.481 239.572C886.267 239.572 880.839 237.326 876.197 232.834C871.63 228.342 869.347 222.053 869.347 213.967V193.078C869.347 184.992 871.63 178.703 876.197 174.211C880.839 169.644 886.267 167.36 892.481 167.36C898.995 167.36 904.461 169.719 908.878 174.436L909.776 169.045H925.948V238H909.776L908.878 232.609Z" fill="#FF0000"/>
</svg>
