<svg width="1343" height="244" viewBox="0 0 1343 244" fill="none" xmlns="http://www.w3.org/2000/svg">
<rect x="1333" width="10" height="162" fill="#D9D9D9"/>
<rect y="230" width="357" height="14" fill="black"/>
<path d="M886.979 192H882.091L881.852 190.394C880.576 191.692 879.015 192.342 877.169 192.342C875.369 192.342 873.797 191.681 872.452 190.359C871.131 189.038 870.47 187.215 870.47 184.891V171.014H876.075V184.549C876.075 185.415 876.337 186.098 876.861 186.6C877.385 187.101 878.012 187.352 878.741 187.352C879.448 187.352 880.063 187.101 880.587 186.6C881.111 186.098 881.373 185.415 881.373 184.549V171.014H886.979V192ZM900.377 171.014H906.119L901.539 181.473L906.188 192H900.411L898.292 187.01L897.745 184.515H897.574L897.062 187.01L894.942 192H889.166L893.814 181.473L889.2 171.014H894.942L897.062 175.936L897.574 178.431H897.745L898.292 175.936L900.377 171.014ZM933.907 192H928.985L928.712 190.359C927.39 191.772 925.727 192.479 923.722 192.479C921.83 192.479 920.178 191.795 918.766 190.428C917.376 189.061 916.681 187.146 916.681 184.686V178.328C916.681 175.867 917.376 173.953 918.766 172.586C920.178 171.196 921.83 170.501 923.722 170.501C925.499 170.501 927.026 171.071 928.302 172.21V165.75H933.907V192ZM922.286 184.344C922.286 185.324 922.582 186.098 923.175 186.668C923.767 187.215 924.474 187.488 925.294 187.488C926.114 187.488 926.821 187.215 927.413 186.668C928.006 186.098 928.302 185.324 928.302 184.344V178.67C928.302 177.69 928.006 176.927 927.413 176.38C926.821 175.81 926.114 175.525 925.294 175.525C924.474 175.525 923.767 175.81 923.175 176.38C922.582 176.927 922.286 177.69 922.286 178.67V184.344ZM942.35 183.489V184.344C942.35 185.324 942.634 186.098 943.204 186.668C943.797 187.215 944.469 187.488 945.221 187.488C945.882 187.488 946.497 187.272 947.066 186.839C947.659 186.406 948.012 185.848 948.126 185.164L953.561 187.044C953.105 188.799 952.171 190.143 950.758 191.077C949.368 192.011 947.568 192.479 945.357 192.479C943.033 192.479 941.017 191.795 939.308 190.428C937.599 189.061 936.744 187.146 936.744 184.686V178.328C936.744 175.867 937.599 173.953 939.308 172.586C941.017 171.196 943.033 170.501 945.357 170.501C947.682 170.501 949.698 171.196 951.407 172.586C953.116 173.953 953.971 175.867 953.971 178.328V183.489H942.35ZM942.35 178.67H948.365C948.365 177.69 948.069 176.927 947.477 176.38C946.884 175.81 946.178 175.525 945.357 175.525C944.537 175.525 943.831 175.81 943.238 176.38C942.646 176.927 942.35 177.69 942.35 178.67ZM964.635 187.488C965.273 187.488 965.774 187.329 966.139 187.01C966.503 186.691 966.686 186.269 966.686 185.745C966.686 185.13 966.332 184.651 965.626 184.31C964.92 183.945 964.065 183.649 963.062 183.421C962.06 183.17 961.057 182.863 960.055 182.498C959.052 182.111 958.198 181.484 957.491 180.618C956.785 179.729 956.432 178.59 956.432 177.2C956.432 175.081 957.195 173.44 958.722 172.278C960.248 171.093 962.06 170.501 964.156 170.501C966.321 170.501 968.098 171.036 969.488 172.107C970.878 173.156 971.801 174.671 972.257 176.653L967.13 177.815C967.016 177.132 966.674 176.585 966.104 176.175C965.535 175.742 964.897 175.525 964.19 175.525C963.53 175.525 962.994 175.696 962.584 176.038C962.174 176.38 961.969 176.779 961.969 177.234C961.969 177.576 962.162 177.861 962.55 178.089C962.937 178.317 963.438 178.51 964.054 178.67C964.669 178.807 965.353 178.966 966.104 179.148C966.856 179.331 967.597 179.581 968.326 179.9C969.078 180.219 969.762 180.607 970.377 181.062C970.992 181.518 971.493 182.145 971.881 182.942C972.268 183.74 972.462 184.674 972.462 185.745C972.462 187.864 971.664 189.516 970.069 190.701C968.497 191.886 966.64 192.479 964.498 192.479C962.288 192.479 960.476 192.011 959.063 191.077C957.651 190.143 956.716 188.799 956.261 187.044L961.695 185.164C961.809 185.848 962.162 186.406 962.755 186.839C963.347 187.272 963.974 187.488 964.635 187.488ZM975.333 171.014H980.938V192H975.333V171.014ZM975.333 164.007H980.938V168.553H975.333V164.007ZM985.689 197.264L989.176 193.777C989.586 194.165 990.326 194.358 991.397 194.358C991.397 194.358 991.489 194.358 991.671 194.358C992.446 194.358 993.232 194.017 994.029 193.333C994.827 192.649 995.294 191.806 995.431 190.804C994.155 191.92 992.639 192.479 990.885 192.479C988.971 192.479 987.319 191.795 985.929 190.428C984.539 189.061 983.844 187.146 983.844 184.686V178.328C983.844 175.867 984.539 173.953 985.929 172.586C987.341 171.196 988.993 170.501 990.885 170.501C992.89 170.501 994.553 171.219 995.875 172.654L996.148 171.014H1001.07V189.471C1001.07 192.501 1000.25 194.848 998.609 196.512C996.992 198.175 994.679 199.007 991.671 199.007C989.187 199.007 987.193 198.426 985.689 197.264ZM989.449 178.67V184.344C989.449 185.324 989.745 186.098 990.338 186.668C990.93 187.215 991.637 187.488 992.457 187.488C993.277 187.488 993.984 187.215 994.576 186.668C995.169 186.098 995.465 185.324 995.465 184.344V178.67C995.465 177.69 995.169 176.927 994.576 176.38C993.984 175.81 993.277 175.525 992.457 175.525C991.637 175.525 990.93 175.81 990.338 176.38C989.745 176.927 989.449 177.69 989.449 178.67ZM1004.42 171.014H1009.31L1009.58 172.518C1010.86 171.173 1012.42 170.501 1014.26 170.501C1016.06 170.501 1017.62 171.173 1018.95 172.518C1020.27 173.862 1020.93 175.719 1020.93 178.089V192H1015.36V178.465C1015.36 177.599 1015.1 176.915 1014.57 176.414C1014.05 175.913 1013.42 175.662 1012.69 175.662C1011.96 175.662 1011.34 175.913 1010.81 176.414C1010.29 176.915 1010.03 177.599 1010.03 178.465V192H1004.42V171.014ZM1033.23 164.007H1037.1V195.691H1033.23V164.007ZM1040.58 164.007H1044.44V195.691H1040.58V164.007ZM1071.55 182.088V192H1065.77V165.066C1065.77 165.066 1071.01 165.066 1081.5 165.066V170.228H1071.55V176.927H1080.67V182.088H1071.55ZM1084.4 171.014H1089.29L1089.56 172.518C1090.84 171.173 1092.4 170.501 1094.24 170.501C1095.34 170.501 1096.36 170.638 1097.32 170.911L1095 175.936C1094.54 175.753 1094.02 175.662 1093.42 175.662C1092.47 175.662 1091.66 175.924 1091 176.448C1090.34 176.95 1090.01 177.622 1090.01 178.465V192H1084.4V171.014ZM1110.07 178.67C1110.07 177.69 1109.77 176.927 1109.18 176.38C1108.59 175.81 1107.88 175.525 1107.06 175.525C1106.24 175.525 1105.53 175.81 1104.94 176.38C1104.35 176.927 1104.05 177.69 1104.05 178.67V184.344C1104.05 185.324 1104.35 186.098 1104.94 186.668C1105.53 187.215 1106.24 187.488 1107.06 187.488C1107.88 187.488 1108.59 187.215 1109.18 186.668C1109.77 186.098 1110.07 185.324 1110.07 184.344V178.67ZM1098.45 178.328C1098.45 175.867 1099.3 173.953 1101.01 172.586C1102.72 171.196 1104.74 170.501 1107.06 170.501C1109.39 170.501 1111.4 171.196 1113.11 172.586C1114.82 173.953 1115.67 175.867 1115.67 178.328V184.686C1115.67 187.146 1114.82 189.061 1113.11 190.428C1111.4 191.795 1109.39 192.479 1107.06 192.479C1104.74 192.479 1102.72 191.795 1101.01 190.428C1099.3 189.061 1098.45 187.146 1098.45 184.686V178.328ZM1118.75 171.014H1123.64L1123.91 172.518C1125.19 171.173 1126.75 170.501 1128.59 170.501C1130.39 170.501 1131.96 171.173 1133.28 172.518C1134.6 173.862 1135.26 175.719 1135.26 178.089V192H1129.69V178.465C1129.69 177.599 1129.43 176.915 1128.9 176.414C1128.38 175.913 1127.75 175.662 1127.02 175.662C1126.29 175.662 1125.67 175.913 1125.14 176.414C1124.62 176.915 1124.36 177.599 1124.36 178.465V192H1118.75V171.014ZM1146.23 192.479C1144.27 192.479 1142.57 191.863 1141.14 190.633C1139.73 189.402 1139.02 187.693 1139.02 185.506V175.833H1138.03V171.014H1139.02V165.75H1144.62V171.014H1147.6V175.833H1144.62V185.506C1144.62 186.827 1145.1 187.488 1146.06 187.488C1146.36 187.488 1146.68 187.431 1147.02 187.317L1149.34 192.103C1148.45 192.353 1147.42 192.479 1146.23 192.479ZM1155.63 183.489V184.344C1155.63 185.324 1155.92 186.098 1156.49 186.668C1157.08 187.215 1157.75 187.488 1158.5 187.488C1159.16 187.488 1159.78 187.272 1160.35 186.839C1160.94 186.406 1161.29 185.848 1161.41 185.164L1166.84 187.044C1166.39 188.799 1165.45 190.143 1164.04 191.077C1162.65 192.011 1160.85 192.479 1158.64 192.479C1156.31 192.479 1154.3 191.795 1152.59 190.428C1150.88 189.061 1150.03 187.146 1150.03 184.686V178.328C1150.03 175.867 1150.88 173.953 1152.59 172.586C1154.3 171.196 1156.31 170.501 1158.64 170.501C1160.96 170.501 1162.98 171.196 1164.69 172.586C1166.4 173.953 1167.25 175.867 1167.25 178.328V183.489H1155.63ZM1155.63 178.67H1161.65C1161.65 177.69 1161.35 176.927 1160.76 176.38C1160.17 175.81 1159.46 175.525 1158.64 175.525C1157.82 175.525 1157.11 175.81 1156.52 176.38C1155.93 176.927 1155.63 177.69 1155.63 178.67ZM1170.29 171.014H1175.18L1175.46 172.518C1176.73 171.173 1178.29 170.501 1180.14 170.501C1181.94 170.501 1183.5 171.173 1184.82 172.518C1186.14 173.862 1186.8 175.719 1186.8 178.089V192H1181.23V178.465C1181.23 177.599 1180.97 176.915 1180.45 176.414C1179.92 175.913 1179.29 175.662 1178.57 175.662C1177.84 175.662 1177.21 175.913 1176.69 176.414C1176.16 176.915 1175.9 177.599 1175.9 178.465V192H1170.29V171.014ZM1206.73 192H1201.81L1201.53 190.359C1200.21 191.772 1198.55 192.479 1196.54 192.479C1194.65 192.479 1193 191.795 1191.59 190.428C1190.2 189.061 1189.5 187.146 1189.5 184.686V178.328C1189.5 175.867 1190.2 173.953 1191.59 172.586C1193 171.196 1194.65 170.501 1196.54 170.501C1198.32 170.501 1199.85 171.071 1201.12 172.21V165.75H1206.73V192ZM1195.11 184.344C1195.11 185.324 1195.4 186.098 1196 186.668C1196.59 187.215 1197.3 187.488 1198.12 187.488C1198.94 187.488 1199.64 187.215 1200.24 186.668C1200.83 186.098 1201.12 185.324 1201.12 184.344V178.67C1201.12 177.69 1200.83 176.927 1200.24 176.38C1199.64 175.81 1198.94 175.525 1198.12 175.525C1197.3 175.525 1196.59 175.81 1196 176.38C1195.4 176.927 1195.11 177.69 1195.11 178.67V184.344ZM1227.78 186.805C1228.65 186.805 1229.4 186.486 1230.04 185.848C1230.68 185.21 1231 184.321 1231 183.182V173.885C1231 172.745 1230.68 171.857 1230.04 171.219C1229.4 170.558 1228.65 170.228 1227.78 170.228H1224.91V186.805H1227.78ZM1227.78 192H1219.14V165.066H1227.78C1230.77 165.066 1233.01 165.887 1234.52 167.527C1236.02 169.145 1236.77 171.492 1236.77 174.568V182.464C1236.77 185.54 1236.02 187.898 1234.52 189.539C1233.01 191.18 1230.77 192 1227.78 192ZM1244.77 183.489V184.344C1244.77 185.324 1245.06 186.098 1245.63 186.668C1246.22 187.215 1246.89 187.488 1247.64 187.488C1248.3 187.488 1248.92 187.272 1249.49 186.839C1250.08 186.406 1250.43 185.848 1250.55 185.164L1255.98 187.044C1255.53 188.799 1254.59 190.143 1253.18 191.077C1251.79 192.011 1249.99 192.479 1247.78 192.479C1245.46 192.479 1243.44 191.795 1241.73 190.428C1240.02 189.061 1239.17 187.146 1239.17 184.686V178.328C1239.17 175.867 1240.02 173.953 1241.73 172.586C1243.44 171.196 1245.46 170.501 1247.78 170.501C1250.1 170.501 1252.12 171.196 1253.83 172.586C1255.54 173.953 1256.39 175.867 1256.39 178.328V183.489H1244.77ZM1244.77 178.67H1250.79C1250.79 177.69 1250.49 176.927 1249.9 176.38C1249.31 175.81 1248.6 175.525 1247.78 175.525C1246.96 175.525 1246.25 175.81 1245.66 176.38C1245.07 176.927 1244.77 177.69 1244.77 178.67ZM1266.78 184.925L1267.33 181.746L1270.03 171.014H1275.7L1269.72 192H1263.6L1257.62 171.014H1263.3L1266.03 181.746L1266.54 184.925C1266.54 184.925 1266.62 184.925 1266.78 184.925Z" fill="#FF0000"/>
<path d="M79.8936 57.9971C79.8936 48.7132 81.7279 41.5632 85.3965 36.5469C89.14 31.5306 94.5306 29.0225 101.568 29.0225H104.376V40.2529H101.568C99.2474 40.2529 97.151 41.638 95.2793 44.4082C93.4824 47.1035 92.584 50.847 92.584 55.6387C92.584 68.0671 89.6641 76.5648 83.8242 81.1318C89.6641 85.624 92.584 94.0469 92.584 106.4C92.584 111.192 93.4824 114.973 95.2793 117.743C97.151 120.438 99.2474 121.786 101.568 121.786H104.376V133.129H101.568C94.5306 133.129 89.14 130.583 85.3965 125.492C81.7279 120.476 79.8936 113.326 79.8936 104.042C79.8936 98.6514 79.2197 94.4212 77.8721 91.3516C76.5244 88.2819 74.9896 86.7471 73.2676 86.7471H70.3477V75.4043H73.2676C74.9896 75.4043 76.5244 73.8695 77.8721 70.7998C79.2197 67.6553 79.8936 63.3877 79.8936 57.9971ZM166.368 122.572C159.929 122.572 154.352 120.551 149.635 116.508C144.993 112.465 142.672 106.85 142.672 99.6621V67.8799H139.415V52.0449H142.672V34.75H161.09V52.0449H170.86V67.8799H161.09V99.6621C161.09 104.005 162.662 106.176 165.807 106.176C166.78 106.176 167.828 105.989 168.951 105.614L176.588 121.337C173.668 122.16 170.261 122.572 166.368 122.572ZM180.743 121C180.743 121 180.743 90.3408 180.743 29.0225H199.161V55.5264C203.054 52.0824 207.696 50.3604 213.087 50.3604C219.002 50.3604 224.13 52.569 228.473 56.9863C232.815 61.4036 234.986 67.5055 234.986 75.292V121H216.681V76.5273C216.681 73.6823 215.82 71.4362 214.098 69.7891C212.376 68.1419 210.317 67.3184 207.921 67.3184C205.525 67.3184 203.466 68.1419 201.744 69.7891C200.022 71.4362 199.161 73.6823 199.161 76.5273V121H180.743ZM245.88 52.0449H264.298V121H245.88V52.0449ZM245.88 29.0225H264.298V43.959H245.88V29.0225ZM300.685 106.176C302.781 106.176 304.428 105.652 305.626 104.604C306.824 103.555 307.423 102.17 307.423 100.448C307.423 98.4268 306.262 96.8545 303.941 95.7314C301.62 94.5335 298.813 93.5602 295.519 92.8115C292.224 91.988 288.93 90.9772 285.636 89.7793C282.341 88.5065 279.534 86.4476 277.213 83.6025C274.892 80.6826 273.731 76.9391 273.731 72.3721C273.731 65.4092 276.24 60.0186 281.256 56.2002C286.272 52.307 292.224 50.3604 299.112 50.3604C306.225 50.3604 312.065 52.1198 316.632 55.6387C321.199 59.0827 324.231 64.0615 325.729 70.5752L308.883 74.3936C308.508 72.1475 307.385 70.3506 305.514 69.0029C303.642 67.5804 301.546 66.8691 299.225 66.8691C297.053 66.8691 295.294 67.4307 293.946 68.5537C292.599 69.6768 291.925 70.987 291.925 72.4844C291.925 73.6074 292.561 74.5433 293.834 75.292C295.107 76.0407 296.754 76.6771 298.775 77.2012C300.797 77.6504 303.043 78.1745 305.514 78.7734C307.984 79.3724 310.418 80.196 312.813 81.2441C315.284 82.2923 317.53 83.5651 319.552 85.0625C321.573 86.5599 323.22 88.6188 324.493 91.2393C325.766 93.8597 326.402 96.9294 326.402 100.448C326.402 107.411 323.782 112.839 318.541 116.732C313.375 120.626 307.273 122.572 300.235 122.572C292.973 122.572 287.021 121.037 282.379 117.968C277.737 114.898 274.667 110.481 273.17 104.716L291.026 98.5391C291.401 100.785 292.561 102.619 294.508 104.042C296.454 105.465 298.513 106.176 300.685 106.176ZM354.591 121H336.173V106.063H354.591V121ZM940.709 63.3877H991.808V80.458H940.709V63.3877ZM940.709 89.7793H991.808V106.85H940.709V89.7793ZM1288.63 57.9971C1288.63 63.3877 1289.3 67.6553 1290.65 70.7998C1292.07 73.8695 1293.65 75.4043 1295.37 75.4043H1298.17V86.7471H1295.37C1293.65 86.7471 1292.07 88.2819 1290.65 91.3516C1289.3 94.4212 1288.63 98.6514 1288.63 104.042C1288.63 113.326 1286.79 120.476 1283.13 125.492C1279.46 130.583 1274.1 133.129 1267.07 133.129H1264.15V121.786H1267.07C1269.39 121.786 1271.45 120.438 1273.24 117.743C1275.11 114.973 1276.05 111.192 1276.05 106.4C1276.05 94.0469 1278.97 85.624 1284.81 81.1318C1278.97 76.5648 1276.05 68.0671 1276.05 55.6387C1276.05 50.847 1275.11 47.1035 1273.24 44.4082C1271.45 41.638 1269.39 40.2529 1267.07 40.2529H1264.15V29.0225H1267.07C1274.1 29.0225 1279.46 31.5306 1283.13 36.5469C1286.79 41.5632 1288.63 48.7132 1288.63 57.9971Z" fill="black"/>
<path d="M365.821 52.0449H381.881L382.779 56.9863C386.972 52.569 392.101 50.3604 398.165 50.3604C404.08 50.3604 409.208 52.569 413.551 56.9863C417.893 61.4036 420.064 67.5055 420.064 75.292V121H401.759V76.5273C401.759 73.6823 400.898 71.4362 399.176 69.7891C397.454 68.1419 395.395 67.3184 392.999 67.3184C390.603 67.3184 388.544 68.1419 386.822 69.7891C385.1 71.4362 384.239 73.6823 384.239 76.5273V121H365.821V52.0449ZM447.467 95.8438C447.467 99.0632 448.44 101.609 450.387 103.48C452.333 105.277 454.654 106.176 457.35 106.176C460.045 106.176 462.366 105.277 464.312 103.48C466.259 101.609 467.232 99.0632 467.232 95.8438V77.2012C467.232 73.9818 466.259 71.4736 464.312 69.6768C462.366 67.805 460.045 66.8691 457.35 66.8691C454.654 66.8691 452.333 67.805 450.387 69.6768C448.44 71.4736 447.467 73.9818 447.467 77.2012V95.8438ZM468.58 115.609C464.238 120.251 458.772 122.572 452.184 122.572C445.969 122.572 440.541 120.326 435.899 115.834C431.332 111.342 429.049 105.053 429.049 96.9668V76.0781C429.049 67.9922 431.332 61.7031 435.899 57.2109C440.541 52.6439 445.969 50.3604 452.184 50.3604C458.697 50.3604 464.163 52.7188 468.58 57.4355L469.479 52.0449H485.65V121H469.479L468.58 115.609ZM496.881 29.0225H515.299V77.7627H518.106L530.011 52.0449H548.766L532.369 86.0732L550.226 121H530.348L517.433 94.833H515.299V121H496.881V29.0225ZM572.799 95.8438C572.799 99.0632 573.772 101.609 575.719 103.48C577.665 105.277 579.986 106.176 582.682 106.176C585.377 106.176 587.698 105.277 589.645 103.48C591.591 101.609 592.564 99.0632 592.564 95.8438V77.2012C592.564 73.9818 591.591 71.4736 589.645 69.6768C587.698 67.805 585.377 66.8691 582.682 66.8691C579.986 66.8691 577.665 67.805 575.719 69.6768C573.772 71.4736 572.799 73.9818 572.799 77.2012V95.8438ZM593.912 115.609C589.57 120.251 584.104 122.572 577.516 122.572C571.301 122.572 565.873 120.326 561.231 115.834C556.664 111.342 554.381 105.053 554.381 96.9668V76.0781C554.381 67.9922 556.664 61.7031 561.231 57.2109C565.873 52.6439 571.301 50.3604 577.516 50.3604C584.029 50.3604 589.495 52.7188 593.912 57.4355L594.811 52.0449H610.982V121H594.811L593.912 115.609ZM626.48 138.295L637.936 126.84C639.283 128.113 641.716 128.749 645.235 128.749C645.235 128.749 645.535 128.749 646.134 128.749C648.679 128.749 651.262 127.626 653.883 125.38C656.503 123.134 658.038 120.364 658.487 117.069C654.295 120.738 649.316 122.572 643.551 122.572C637.262 122.572 631.834 120.326 627.267 115.834C622.7 111.342 620.416 105.053 620.416 96.9668V76.0781C620.416 67.9922 622.7 61.7031 627.267 57.2109C631.909 52.6439 637.337 50.3604 643.551 50.3604C650.139 50.3604 655.605 52.7188 659.947 57.4355L660.846 52.0449H677.018V112.689C677.018 122.647 674.322 130.359 668.932 135.824C663.616 141.29 656.017 144.022 646.134 144.022C637.973 144.022 631.422 142.113 626.48 138.295ZM638.834 77.2012V95.8438C638.834 99.0632 639.807 101.609 641.754 103.48C643.701 105.277 646.021 106.176 648.717 106.176C651.412 106.176 653.733 105.277 655.68 103.48C657.626 101.609 658.6 99.0632 658.6 95.8438V77.2012C658.6 73.9818 657.626 71.4736 655.68 69.6768C653.733 67.805 651.412 66.8691 648.717 66.8691C646.021 66.8691 643.701 67.805 641.754 69.6768C639.807 71.4736 638.834 73.9818 638.834 77.2012ZM704.757 95.8438C704.757 99.0632 705.73 101.609 707.677 103.48C709.623 105.277 711.944 106.176 714.64 106.176C717.335 106.176 719.656 105.277 721.603 103.48C723.549 101.609 724.522 99.0632 724.522 95.8438V77.2012C724.522 73.9818 723.549 71.4736 721.603 69.6768C719.656 67.805 717.335 66.8691 714.64 66.8691C711.944 66.8691 709.623 67.805 707.677 69.6768C705.73 71.4736 704.757 73.9818 704.757 77.2012V95.8438ZM725.87 115.609C721.528 120.251 716.062 122.572 709.474 122.572C703.259 122.572 697.831 120.326 693.189 115.834C688.622 111.342 686.339 105.053 686.339 96.9668V76.0781C686.339 67.9922 688.622 61.7031 693.189 57.2109C697.831 52.6439 703.259 50.3604 709.474 50.3604C715.987 50.3604 721.453 52.7188 725.87 57.4355L726.769 52.0449H742.94V121H726.769L725.87 115.609ZM782.921 54.291H804.371C805.12 58.4837 807.59 72.971 811.783 97.7529H812.345L819.308 52.0449H838.399L825.484 121H801.002L795.387 87.1963L793.814 75.6289H793.478L792.018 87.1963L786.402 121H761.92L749.005 52.0449H767.984L774.947 97.7529H775.621C776.295 93.5602 777.455 86.5973 779.103 76.8643C780.75 67.0563 782.022 59.5319 782.921 54.291ZM861.534 95.8438C861.534 99.0632 862.507 101.609 864.454 103.48C866.401 105.277 868.722 106.176 871.417 106.176C874.112 106.176 876.433 105.277 878.38 103.48C880.326 101.609 881.3 99.0632 881.3 95.8438V77.2012C881.3 73.9818 880.326 71.4736 878.38 69.6768C876.433 67.805 874.112 66.8691 871.417 66.8691C868.722 66.8691 866.401 67.805 864.454 69.6768C862.507 71.4736 861.534 73.9818 861.534 77.2012V95.8438ZM882.647 115.609C878.305 120.251 872.84 122.572 866.251 122.572C860.037 122.572 854.609 120.326 849.967 115.834C845.4 111.342 843.116 105.053 843.116 96.9668V76.0781C843.116 67.9922 845.4 61.7031 849.967 57.2109C854.609 52.6439 860.037 50.3604 866.251 50.3604C872.765 50.3604 878.23 52.7188 882.647 57.4355L883.546 52.0449H899.718V121H883.546L882.647 115.609ZM1048.86 93.0361V95.8438C1048.86 99.0632 1049.79 101.609 1051.67 103.48C1053.61 105.277 1055.82 106.176 1058.29 106.176C1060.46 106.176 1062.48 105.465 1064.36 104.042C1066.3 102.619 1067.46 100.785 1067.84 98.5391L1085.69 104.716C1084.2 110.481 1081.13 114.898 1076.49 117.968C1071.92 121.037 1066 122.572 1058.74 122.572C1051.1 122.572 1044.48 120.326 1038.86 115.834C1033.25 111.342 1030.44 105.053 1030.44 96.9668V76.0781C1030.44 67.9922 1033.25 61.7031 1038.86 57.2109C1044.48 52.6439 1051.1 50.3604 1058.74 50.3604C1066.38 50.3604 1073 52.6439 1078.62 57.2109C1084.23 61.7031 1087.04 67.9922 1087.04 76.0781V93.0361H1048.86ZM1048.86 77.2012H1068.62C1068.62 73.9818 1067.65 71.4736 1065.7 69.6768C1063.76 67.805 1061.44 66.8691 1058.74 66.8691C1056.05 66.8691 1053.72 67.805 1051.78 69.6768C1049.83 71.4736 1048.86 73.9818 1048.86 77.2012ZM1096.92 52.0449H1112.98L1113.88 56.9863C1118.08 52.569 1123.2 50.3604 1129.27 50.3604C1132.86 50.3604 1136.23 50.8096 1139.38 51.708L1131.74 68.2168C1130.24 67.6178 1128.52 67.3184 1126.57 67.3184C1123.43 67.3184 1120.77 68.1794 1118.6 69.9014C1116.43 71.5485 1115.34 73.7572 1115.34 76.5273V121H1096.92V52.0449ZM1145.1 52.0449H1163.52V121H1145.1V52.0449ZM1145.1 29.0225H1163.52V43.959H1145.1V29.0225ZM1194.18 103.48C1196.13 105.277 1198.34 106.176 1200.81 106.176C1203.28 106.176 1205.56 105.277 1207.66 103.48C1209.83 101.609 1211.14 99.2129 1211.59 96.293L1229.56 102.357C1228.06 108.871 1224.84 113.887 1219.9 117.406C1215.03 120.85 1208.82 122.572 1201.26 122.572C1193.62 122.572 1186.99 120.326 1181.38 115.834C1175.76 111.342 1172.96 105.053 1172.96 96.9668V76.0781C1172.96 67.9922 1175.76 61.7031 1181.38 57.2109C1186.99 52.6439 1193.62 50.3604 1201.26 50.3604C1208.67 50.3604 1214.73 52.1198 1219.45 55.6387C1224.24 59.0827 1227.39 64.0615 1228.88 70.5752L1211.03 76.752C1210.58 73.832 1209.34 71.4736 1207.32 69.6768C1205.3 67.805 1203.09 66.8691 1200.69 66.8691C1198.3 66.8691 1196.13 67.805 1194.18 69.6768C1192.31 71.4736 1191.37 73.9818 1191.37 77.2012V95.8438C1191.37 99.0632 1192.31 101.609 1194.18 103.48Z" fill="#FF0000"/>
</svg>