<svg width="1681" height="74" viewBox="0 0 1681 74" fill="none" xmlns="http://www.w3.org/2000/svg">
<path d="M13.6836 47.8789C14.9193 49.0195 16.3213 49.5898 17.8896 49.5898C19.458 49.5898 20.9076 49.0195 22.2383 47.8789C23.6165 46.6908 24.4482 45.1699 24.7334 43.3164L36.1396 47.166C35.1891 51.3008 33.1455 54.485 30.0088 56.7188C26.9196 58.9049 22.9749 59.998 18.1748 59.998C13.3271 59.998 9.12109 58.5723 5.55664 55.7207C1.99219 52.8691 0.209961 48.877 0.209961 43.7441V30.4844C0.209961 25.3516 1.99219 21.3594 5.55664 18.5078C9.12109 15.6087 13.3271 14.1592 18.1748 14.1592C22.8799 14.1592 26.7295 15.276 29.7236 17.5098C32.7653 19.696 34.7614 22.8564 35.7119 26.9912L24.377 30.9121C24.0918 29.0586 23.3076 27.5615 22.0244 26.4209C20.7412 25.2327 19.3392 24.6387 17.8184 24.6387C16.2975 24.6387 14.9193 25.2327 13.6836 26.4209C12.4954 27.5615 11.9014 29.1536 11.9014 31.1973V43.0312C11.9014 45.0749 12.4954 46.6908 13.6836 47.8789ZM64.7266 31.1973C64.7266 29.1536 64.1087 27.5615 62.873 26.4209C61.6374 25.2327 60.1641 24.6387 58.4531 24.6387C56.7422 24.6387 55.2689 25.2327 54.0332 26.4209C52.7975 27.5615 52.1797 29.1536 52.1797 31.1973V43.0312C52.1797 45.0749 52.7975 46.6908 54.0332 47.8789C55.2689 49.0195 56.7422 49.5898 58.4531 49.5898C60.1641 49.5898 61.6374 49.0195 62.873 47.8789C64.1087 46.6908 64.7266 45.0749 64.7266 43.0312V31.1973ZM40.4883 30.4844C40.4883 25.3516 42.2705 21.3594 45.835 18.5078C49.3994 15.6087 53.6055 14.1592 58.4531 14.1592C63.3008 14.1592 67.5068 15.6087 71.0713 18.5078C74.6357 21.3594 76.418 25.3516 76.418 30.4844V43.7441C76.418 48.877 74.6357 52.8691 71.0713 55.7207C67.5068 58.5723 63.3008 59.998 58.4531 59.998C53.6055 59.998 49.3994 58.5723 45.835 55.7207C42.2705 52.8691 40.4883 48.877 40.4883 43.7441V30.4844ZM82.834 15.2285H93.0283L93.5986 18.3652C96.2601 15.5612 99.5156 14.1592 103.365 14.1592C107.12 14.1592 110.375 15.5612 113.132 18.3652C115.888 21.1693 117.267 25.0426 117.267 29.9854V59H105.646V30.7695C105.646 28.9635 105.1 27.5378 104.007 26.4922C102.914 25.4466 101.607 24.9238 100.086 24.9238C98.5651 24.9238 97.2581 25.4466 96.165 26.4922C95.0719 27.5378 94.5254 28.9635 94.5254 30.7695V59H82.834V15.2285ZM139.937 49.5898C141.267 49.5898 142.313 49.2572 143.073 48.5918C143.834 47.9264 144.214 47.0472 144.214 45.9541C144.214 44.6709 143.477 43.6729 142.004 42.96C140.531 42.1995 138.748 41.5817 136.657 41.1064C134.566 40.5837 132.475 39.9421 130.384 39.1816C128.293 38.3737 126.51 37.0667 125.037 35.2607C123.564 33.4072 122.827 31.0309 122.827 28.1318C122.827 23.7119 124.419 20.29 127.604 17.8662C130.788 15.3949 134.566 14.1592 138.938 14.1592C143.453 14.1592 147.16 15.276 150.06 17.5098C152.959 19.696 154.883 22.8564 155.834 26.9912L145.141 29.415C144.903 27.9893 144.19 26.8486 143.002 25.9932C141.814 25.0902 140.483 24.6387 139.01 24.6387C137.632 24.6387 136.515 24.9951 135.659 25.708C134.804 26.4209 134.376 27.2526 134.376 28.2031C134.376 28.916 134.78 29.5101 135.588 29.9854C136.396 30.4606 137.441 30.8646 138.725 31.1973C140.008 31.4824 141.434 31.8151 143.002 32.1953C144.57 32.5755 146.115 33.0983 147.636 33.7637C149.204 34.429 150.63 35.237 151.913 36.1875C153.196 37.138 154.242 38.445 155.05 40.1084C155.858 41.7718 156.262 43.7204 156.262 45.9541C156.262 50.374 154.598 53.8197 151.271 56.291C147.992 58.7624 144.119 59.998 139.651 59.998C135.041 59.998 131.263 59.0238 128.316 57.0752C125.37 55.1266 123.421 52.3226 122.471 48.6631L133.806 44.7422C134.043 46.168 134.78 47.3324 136.016 48.2354C137.251 49.1383 138.558 49.5898 139.937 49.5898ZM178.29 59.998C174.203 59.998 170.662 58.7148 167.668 56.1484C164.721 53.582 163.248 50.0176 163.248 45.4551V25.2803H161.181V15.2285H163.248V4.25H174.939V15.2285H181.142V25.2803H174.939V45.4551C174.939 48.2116 175.938 49.5898 177.934 49.5898C178.551 49.5898 179.217 49.471 179.93 49.2334L184.777 59.2139C182.924 59.7367 180.761 59.998 178.29 59.998ZM224.984 66.6992V0.614258H242.022V7.74316H233.04V59.499H242.022V66.6992H224.984ZM626.128 66.2715H623.205V59H618.072V49.5186H629.764V59L626.128 66.2715ZM671.396 49.5898C672.727 49.5898 673.773 49.2572 674.533 48.5918C675.294 47.9264 675.674 47.0472 675.674 45.9541C675.674 44.6709 674.937 43.6729 673.464 42.96C671.991 42.1995 670.208 41.5817 668.117 41.1064C666.026 40.5837 663.935 39.9421 661.844 39.1816C659.753 38.3737 657.97 37.0667 656.497 35.2607C655.024 33.4072 654.287 31.0309 654.287 28.1318C654.287 23.7119 655.879 20.29 659.063 17.8662C662.248 15.3949 666.026 14.1592 670.398 14.1592C674.913 14.1592 678.62 15.276 681.52 17.5098C684.419 19.696 686.343 22.8564 687.294 26.9912L676.601 29.415C676.363 27.9893 675.65 26.8486 674.462 25.9932C673.274 25.0902 671.943 24.6387 670.47 24.6387C669.091 24.6387 667.975 24.9951 667.119 25.708C666.264 26.4209 665.836 27.2526 665.836 28.2031C665.836 28.916 666.24 29.5101 667.048 29.9854C667.856 30.4606 668.901 30.8646 670.185 31.1973C671.468 31.4824 672.894 31.8151 674.462 32.1953C676.03 32.5755 677.575 33.0983 679.096 33.7637C680.664 34.429 682.09 35.237 683.373 36.1875C684.656 37.138 685.702 38.445 686.51 40.1084C687.318 41.7718 687.722 43.7204 687.722 45.9541C687.722 50.374 686.058 53.8197 682.731 56.291C679.452 58.7624 675.579 59.998 671.111 59.998C666.501 59.998 662.723 59.0238 659.776 57.0752C656.83 55.1266 654.881 52.3226 653.931 48.6631L665.266 44.7422C665.503 46.168 666.24 47.3324 667.476 48.2354C668.711 49.1383 670.018 49.5898 671.396 49.5898ZM704.118 41.249V43.0312C704.118 45.0749 704.712 46.6908 705.9 47.8789C707.136 49.0195 708.538 49.5898 710.106 49.5898C711.485 49.5898 712.768 49.1383 713.956 48.2354C715.192 47.3324 715.928 46.168 716.166 44.7422L727.501 48.6631C726.55 52.3226 724.602 55.1266 721.655 57.0752C718.756 59.0238 715.002 59.998 710.392 59.998C705.544 59.998 701.338 58.5723 697.773 55.7207C694.209 52.8691 692.427 48.877 692.427 43.7441V30.4844C692.427 25.3516 694.209 21.3594 697.773 18.5078C701.338 15.6087 705.544 14.1592 710.392 14.1592C715.239 14.1592 719.445 15.6087 723.01 18.5078C726.574 21.3594 728.356 25.3516 728.356 30.4844V41.249H704.118ZM704.118 31.1973H716.665C716.665 29.1536 716.047 27.5615 714.812 26.4209C713.576 25.2327 712.103 24.6387 710.392 24.6387C708.681 24.6387 707.207 25.2327 705.972 26.4209C704.736 27.5615 704.118 29.1536 704.118 31.1973ZM750.812 59.998C746.725 59.998 743.185 58.7148 740.19 56.1484C737.244 53.582 735.771 50.0176 735.771 45.4551V25.2803H733.703V15.2285H735.771V4.25H747.462V15.2285H753.664V25.2803H747.462V45.4551C747.462 48.2116 748.46 49.5898 750.456 49.5898C751.074 49.5898 751.739 49.471 752.452 49.2334L757.3 59.2139C755.446 59.7367 753.284 59.998 750.812 59.998ZM760.009 2.82422H772.057V59H760.009V2.82422ZM795.154 49.5898C796.485 49.5898 797.531 49.2572 798.291 48.5918C799.051 47.9264 799.432 47.0472 799.432 45.9541C799.432 44.6709 798.695 43.6729 797.222 42.96C795.748 42.1995 793.966 41.5817 791.875 41.1064C789.784 40.5837 787.693 39.9421 785.602 39.1816C783.51 38.3737 781.728 37.0667 780.255 35.2607C778.782 33.4072 778.045 31.0309 778.045 28.1318C778.045 23.7119 779.637 20.29 782.821 17.8662C786.006 15.3949 789.784 14.1592 794.156 14.1592C798.671 14.1592 802.378 15.276 805.277 17.5098C808.176 19.696 810.101 22.8564 811.052 26.9912L800.358 29.415C800.121 27.9893 799.408 26.8486 798.22 25.9932C797.032 25.0902 795.701 24.6387 794.228 24.6387C792.849 24.6387 791.732 24.9951 790.877 25.708C790.021 26.4209 789.594 27.2526 789.594 28.2031C789.594 28.916 789.998 29.5101 790.806 29.9854C791.614 30.4606 792.659 30.8646 793.942 31.1973C795.226 31.4824 796.651 31.8151 798.22 32.1953C799.788 32.5755 801.333 33.0983 802.854 33.7637C804.422 34.429 805.848 35.237 807.131 36.1875C808.414 37.138 809.46 38.445 810.268 40.1084C811.076 41.7718 811.479 43.7204 811.479 45.9541C811.479 50.374 809.816 53.8197 806.489 56.291C803.21 58.7624 799.337 59.998 794.869 59.998C790.259 59.998 786.481 59.0238 783.534 57.0752C780.588 55.1266 778.639 52.3226 777.688 48.6631L789.023 44.7422C789.261 46.168 789.998 47.3324 791.233 48.2354C792.469 49.1383 793.776 49.5898 795.154 49.5898ZM866.372 59H850.831L846.554 36.0449L845.556 28.7021H845.342L844.415 36.0449L840.138 59H824.597L814.973 2.82422H827.306L832.866 42.8174H833.223L834.363 36.1162L839.354 7.67188L851.544 7.81445C855.156 28.2031 857.2 39.8708 857.675 42.8174H858.103L863.521 2.82422H875.925L866.372 59ZM903.941 31.1973C903.941 29.1536 903.324 27.5615 902.088 26.4209C900.852 25.2327 899.379 24.6387 897.668 24.6387C895.957 24.6387 894.484 25.2327 893.248 26.4209C892.012 27.5615 891.395 29.1536 891.395 31.1973V43.0312C891.395 45.0749 892.012 46.6908 893.248 47.8789C894.484 49.0195 895.957 49.5898 897.668 49.5898C899.379 49.5898 900.852 49.0195 902.088 47.8789C903.324 46.6908 903.941 45.0749 903.941 43.0312V31.1973ZM879.703 30.4844C879.703 25.3516 881.485 21.3594 885.05 18.5078C888.614 15.6087 892.82 14.1592 897.668 14.1592C902.516 14.1592 906.722 15.6087 910.286 18.5078C913.851 21.3594 915.633 25.3516 915.633 30.4844V43.7441C915.633 48.877 913.851 52.8691 910.286 55.7207C906.722 58.5723 902.516 59.998 897.668 59.998C892.82 59.998 888.614 58.5723 885.05 55.7207C881.485 52.8691 879.703 48.877 879.703 43.7441V30.4844ZM921.978 15.2285H932.172L932.742 18.3652C935.404 15.5612 938.659 14.1592 942.509 14.1592C944.79 14.1592 946.929 14.4443 948.925 15.0146L944.077 25.4941C943.127 25.1139 942.034 24.9238 940.798 24.9238C938.802 24.9238 937.115 25.4704 935.736 26.5635C934.358 27.609 933.669 29.0111 933.669 30.7695V59H921.978V15.2285ZM952.489 0.614258H964.181V31.5537H965.963L973.52 15.2285H985.425L975.017 36.8291L986.352 59H973.733L965.535 42.3896H964.181V59H952.489V0.614258ZM990.13 15.2285H1001.82V59H990.13V15.2285ZM990.13 0.614258H1001.82V10.0957H990.13V0.614258ZM1009.02 15.2285H1019.22L1019.79 18.3652C1022.45 15.5612 1025.7 14.1592 1029.55 14.1592C1033.31 14.1592 1036.56 15.5612 1039.32 18.3652C1042.08 21.1693 1043.45 25.0426 1043.45 29.9854V59H1031.83V30.7695C1031.83 28.9635 1031.29 27.5378 1030.19 26.4922C1029.1 25.4466 1027.79 24.9238 1026.27 24.9238C1024.75 24.9238 1023.45 25.4466 1022.35 26.4922C1021.26 27.5378 1020.71 28.9635 1020.71 30.7695V59H1009.02V15.2285ZM1052.94 69.9785L1060.21 62.707C1061.06 63.515 1062.61 63.9189 1064.84 63.9189C1064.84 63.9189 1065.03 63.9189 1065.41 63.9189C1067.03 63.9189 1068.67 63.2061 1070.33 61.7803C1071.99 60.3545 1072.97 58.596 1073.25 56.5049C1070.59 58.8337 1067.43 59.998 1063.77 59.998C1059.78 59.998 1056.33 58.5723 1053.43 55.7207C1050.54 52.8691 1049.09 48.877 1049.09 43.7441V30.4844C1049.09 25.3516 1050.54 21.3594 1053.43 18.5078C1056.38 15.6087 1059.83 14.1592 1063.77 14.1592C1067.95 14.1592 1071.42 15.6562 1074.18 18.6504L1074.75 15.2285H1085.02V53.7246C1085.02 60.0456 1083.3 64.9408 1079.88 68.4102C1076.51 71.8796 1071.68 73.6143 1065.41 73.6143C1060.23 73.6143 1056.07 72.4023 1052.94 69.9785ZM1060.78 31.1973V43.0312C1060.78 45.0749 1061.4 46.6908 1062.63 47.8789C1063.87 49.0195 1065.34 49.5898 1067.05 49.5898C1068.76 49.5898 1070.24 49.0195 1071.47 47.8789C1072.71 46.6908 1073.32 45.0749 1073.32 43.0312V31.1973C1073.32 29.1536 1072.71 27.5615 1071.47 26.4209C1070.24 25.2327 1068.76 24.6387 1067.05 24.6387C1065.34 24.6387 1063.87 25.2327 1062.63 26.4209C1061.4 27.5615 1060.78 29.1536 1060.78 31.1973ZM1127.72 66.6992H1110.68V59.499H1119.66V7.74316H1110.68V0.614258H1127.72V66.6992ZM1153.6 22.4287H1186.03V33.2646H1153.6V22.4287ZM1153.6 39.1816H1186.03V50.0176H1153.6V39.1816ZM1245.84 59H1235.65L1235.15 55.6494C1232.49 58.3584 1229.23 59.7129 1225.38 59.7129C1221.63 59.7129 1218.35 58.3346 1215.55 55.5781C1212.79 52.8216 1211.41 49.0195 1211.41 44.1719V15.2285H1223.1V43.459C1223.1 45.265 1223.65 46.6908 1224.74 47.7363C1225.84 48.7819 1227.14 49.3047 1228.66 49.3047C1230.14 49.3047 1231.42 48.7819 1232.51 47.7363C1233.61 46.6908 1234.15 45.265 1234.15 43.459V15.2285H1245.84V59ZM1268.94 49.5898C1270.27 49.5898 1271.32 49.2572 1272.08 48.5918C1272.84 47.9264 1273.22 47.0472 1273.22 45.9541C1273.22 44.6709 1272.48 43.6729 1271.01 42.96C1269.54 42.1995 1267.75 41.5817 1265.66 41.1064C1263.57 40.5837 1261.48 39.9421 1259.39 39.1816C1257.3 38.3737 1255.52 37.0667 1254.04 35.2607C1252.57 33.4072 1251.83 31.0309 1251.83 28.1318C1251.83 23.7119 1253.42 20.29 1256.61 17.8662C1259.79 15.3949 1263.57 14.1592 1267.94 14.1592C1272.46 14.1592 1276.17 15.276 1279.06 17.5098C1281.96 19.696 1283.89 22.8564 1284.84 26.9912L1274.15 29.415C1273.91 27.9893 1273.19 26.8486 1272.01 25.9932C1270.82 25.0902 1269.49 24.6387 1268.01 24.6387C1266.64 24.6387 1265.52 24.9951 1264.66 25.708C1263.81 26.4209 1263.38 27.2526 1263.38 28.2031C1263.38 28.916 1263.78 29.5101 1264.59 29.9854C1265.4 30.4606 1266.45 30.8646 1267.73 31.1973C1269.01 31.4824 1270.44 31.8151 1272.01 32.1953C1273.58 32.5755 1275.12 33.0983 1276.64 33.7637C1278.21 34.429 1279.63 35.237 1280.92 36.1875C1282.2 37.138 1283.25 38.445 1284.05 40.1084C1284.86 41.7718 1285.27 43.7204 1285.27 45.9541C1285.27 50.374 1283.6 53.8197 1280.28 56.291C1277 58.7624 1273.12 59.998 1268.66 59.998C1264.05 59.998 1260.27 59.0238 1257.32 57.0752C1254.37 55.1266 1252.43 52.3226 1251.48 48.6631L1262.81 44.7422C1263.05 46.168 1263.78 47.3324 1265.02 48.2354C1266.26 49.1383 1267.56 49.5898 1268.94 49.5898ZM1301.66 41.249V43.0312C1301.66 45.0749 1302.26 46.6908 1303.45 47.8789C1304.68 49.0195 1306.08 49.5898 1307.65 49.5898C1309.03 49.5898 1310.31 49.1383 1311.5 48.2354C1312.74 47.3324 1313.47 46.168 1313.71 44.7422L1325.05 48.6631C1324.1 52.3226 1322.15 55.1266 1319.2 57.0752C1316.3 59.0238 1312.55 59.998 1307.94 59.998C1303.09 59.998 1298.88 58.5723 1295.32 55.7207C1291.75 52.8691 1289.97 48.877 1289.97 43.7441V30.4844C1289.97 25.3516 1291.75 21.3594 1295.32 18.5078C1298.88 15.6087 1303.09 14.1592 1307.94 14.1592C1312.78 14.1592 1316.99 15.6087 1320.55 18.5078C1324.12 21.3594 1325.9 25.3516 1325.9 30.4844V41.249H1301.66ZM1301.66 31.1973H1314.21C1314.21 29.1536 1313.59 27.5615 1312.36 26.4209C1311.12 25.2327 1309.65 24.6387 1307.94 24.6387C1306.23 24.6387 1304.75 25.2327 1303.52 26.4209C1302.28 27.5615 1301.66 29.1536 1301.66 31.1973ZM1349.14 49.3047C1351.14 49.3047 1352.75 48.7344 1353.99 47.5938C1355.27 46.4531 1355.91 45.0273 1355.91 43.3164C1355.91 41.748 1355.3 40.3698 1354.06 39.1816C1352.87 37.946 1351.38 36.9479 1349.57 36.1875C1347.76 35.4271 1345.79 34.5241 1343.65 33.4785C1341.51 32.3854 1339.54 31.2686 1337.74 30.1279C1335.93 28.9873 1334.41 27.3952 1333.17 25.3516C1331.98 23.3079 1331.39 20.9316 1331.39 18.2227C1331.39 13.5176 1333.05 9.59668 1336.38 6.45996C1339.76 3.27572 1344.27 1.68359 1349.93 1.68359C1354.25 1.68359 1357.89 2.80046 1360.83 5.03418C1363.83 7.2679 1365.8 10.4284 1366.75 14.5156L1355.42 18.4365C1355.13 16.583 1354.35 15.1335 1353.06 14.0879C1351.78 13.0423 1350.42 12.5195 1349 12.5195C1347.57 12.5195 1346.39 13.0661 1345.43 14.1592C1344.48 15.2048 1344.01 16.4404 1344.01 17.8662C1344.01 19.3395 1344.6 20.6465 1345.79 21.7871C1346.98 22.9277 1348.45 23.8545 1350.21 24.5674C1351.97 25.2327 1353.87 26.0882 1355.91 27.1338C1358.01 28.1318 1359.93 29.2012 1361.69 30.3418C1363.45 31.4824 1364.92 33.0983 1366.11 35.1895C1367.3 37.2806 1367.89 39.7044 1367.89 42.4609C1367.89 47.3086 1366.2 51.4671 1362.83 54.9365C1359.5 58.3584 1354.58 60.0693 1348.07 60.0693C1343.27 60.0693 1339.33 58.9762 1336.24 56.79C1333.15 54.5563 1331.08 51.3721 1330.04 47.2373L1341.44 43.3877C1341.73 45.2412 1342.61 46.6908 1344.08 47.7363C1345.6 48.7819 1347.29 49.3047 1349.14 49.3047ZM1388.56 59.998C1384.48 59.998 1380.94 58.7148 1377.94 56.1484C1375 53.582 1373.52 50.0176 1373.52 45.4551V25.2803H1371.46V15.2285H1373.52V4.25H1385.21V15.2285H1391.42V25.2803H1385.21V45.4551C1385.21 48.2116 1386.21 49.5898 1388.21 49.5898C1388.83 49.5898 1389.49 49.471 1390.2 49.2334L1395.05 59.2139C1393.2 59.7367 1391.04 59.998 1388.56 59.998ZM1408.31 43.0312C1408.31 45.0749 1408.93 46.6908 1410.17 47.8789C1411.4 49.0195 1412.87 49.5898 1414.58 49.5898C1416.3 49.5898 1417.77 49.0195 1419 47.8789C1420.24 46.6908 1420.86 45.0749 1420.86 43.0312V31.1973C1420.86 29.1536 1420.24 27.5615 1419 26.4209C1417.77 25.2327 1416.3 24.6387 1414.58 24.6387C1412.87 24.6387 1411.4 25.2327 1410.17 26.4209C1408.93 27.5615 1408.31 29.1536 1408.31 31.1973V43.0312ZM1421.71 55.5781C1418.96 58.5247 1415.49 59.998 1411.31 59.998C1407.36 59.998 1403.92 58.5723 1400.97 55.7207C1398.07 52.8691 1396.62 48.877 1396.62 43.7441V30.4844C1396.62 25.3516 1398.07 21.3594 1400.97 18.5078C1403.92 15.6087 1407.36 14.1592 1411.31 14.1592C1415.44 14.1592 1418.91 15.6562 1421.71 18.6504L1422.28 15.2285H1432.55V59H1422.28L1421.71 55.5781ZM1455.79 59.998C1451.7 59.998 1448.16 58.7148 1445.17 56.1484C1442.22 53.582 1440.75 50.0176 1440.75 45.4551V25.2803H1438.68V15.2285H1440.75V4.25H1452.44V15.2285H1458.64V25.2803H1452.44V45.4551C1452.44 48.2116 1453.44 49.5898 1455.43 49.5898C1456.05 49.5898 1456.72 49.471 1457.43 49.2334L1462.28 59.2139C1460.42 59.7367 1458.26 59.998 1455.79 59.998ZM1475.39 41.249V43.0312C1475.39 45.0749 1475.99 46.6908 1477.18 47.8789C1478.41 49.0195 1479.81 49.5898 1481.38 49.5898C1482.76 49.5898 1484.04 49.1383 1485.23 48.2354C1486.47 47.3324 1487.2 46.168 1487.44 44.7422L1498.78 48.6631C1497.83 52.3226 1495.88 55.1266 1492.93 57.0752C1490.03 59.0238 1486.28 59.998 1481.67 59.998C1476.82 59.998 1472.61 58.5723 1469.05 55.7207C1465.49 52.8691 1463.7 48.877 1463.7 43.7441V30.4844C1463.7 25.3516 1465.49 21.3594 1469.05 18.5078C1472.61 15.6087 1476.82 14.1592 1481.67 14.1592C1486.52 14.1592 1490.72 15.6087 1494.29 18.5078C1497.85 21.3594 1499.63 25.3516 1499.63 30.4844V41.249H1475.39ZM1475.39 31.1973H1487.94C1487.94 29.1536 1487.32 27.5615 1486.09 26.4209C1484.85 25.2327 1483.38 24.6387 1481.67 24.6387C1479.96 24.6387 1478.48 25.2327 1477.25 26.4209C1476.01 27.5615 1475.39 29.1536 1475.39 31.1973ZM1519.95 59.499H1521.73V66.6992C1521.73 66.6992 1521.14 66.6992 1519.95 66.6992C1515.01 66.6992 1511.23 64.9645 1508.62 61.4951C1506.05 58.0732 1504.77 53.1781 1504.77 46.8096V20.4326C1504.77 14.0641 1506.05 9.16895 1508.62 5.74707C1511.23 2.3252 1515.01 0.614258 1519.95 0.614258H1521.73V7.74316H1519.95C1518.1 7.74316 1516.43 8.74121 1514.96 10.7373C1513.49 12.7334 1512.75 15.4899 1512.75 19.0068V48.2354C1512.75 51.7523 1513.49 54.5088 1514.96 56.5049C1516.43 58.501 1518.1 59.499 1519.95 59.499ZM1665.52 59.499C1667.38 59.499 1669.04 58.501 1670.51 56.5049C1671.99 54.5088 1672.72 51.7523 1672.72 48.2354V19.0068C1672.72 15.4899 1671.99 12.7334 1670.51 10.7373C1669.04 8.74121 1667.38 7.74316 1665.52 7.74316H1663.74V0.614258H1665.52C1670.47 0.614258 1674.22 2.3252 1676.79 5.74707C1679.4 9.16895 1680.71 14.0641 1680.71 20.4326V46.8096C1680.71 53.1781 1679.4 58.0732 1676.79 61.4951C1674.22 64.9645 1670.47 66.6992 1665.52 66.6992H1663.74V59.499H1665.52Z" fill="black"/>
<path d="M267.544 15.2285H279.235V59H267.544V15.2285ZM267.544 0.614258H279.235V10.0957H267.544V0.614258ZM302.333 49.5898C303.664 49.5898 304.709 49.2572 305.47 48.5918C306.23 47.9264 306.61 47.0472 306.61 45.9541C306.61 44.6709 305.874 43.6729 304.4 42.96C302.927 42.1995 301.145 41.5817 299.054 41.1064C296.963 40.5837 294.871 39.9421 292.78 39.1816C290.689 38.3737 288.907 37.0667 287.434 35.2607C285.96 33.4072 285.224 31.0309 285.224 28.1318C285.224 23.7119 286.816 20.29 290 17.8662C293.184 15.3949 296.963 14.1592 301.335 14.1592C305.85 14.1592 309.557 15.276 312.456 17.5098C315.355 19.696 317.28 22.8564 318.23 26.9912L307.537 29.415C307.299 27.9893 306.587 26.8486 305.398 25.9932C304.21 25.0902 302.88 24.6387 301.406 24.6387C300.028 24.6387 298.911 24.9951 298.056 25.708C297.2 26.4209 296.772 27.2526 296.772 28.2031C296.772 28.916 297.176 29.5101 297.984 29.9854C298.792 30.4606 299.838 30.8646 301.121 31.1973C302.404 31.4824 303.83 31.8151 305.398 32.1953C306.967 32.5755 308.511 33.0983 310.032 33.7637C311.601 34.429 313.026 35.237 314.31 36.1875C315.593 37.138 316.638 38.445 317.446 40.1084C318.254 41.7718 318.658 43.7204 318.658 45.9541C318.658 50.374 316.995 53.8197 313.668 56.291C310.389 58.7624 306.515 59.998 302.048 59.998C297.438 59.998 293.66 59.0238 290.713 57.0752C287.766 55.1266 285.818 52.3226 284.867 48.6631L296.202 44.7422C296.44 46.168 297.176 47.3324 298.412 48.2354C299.648 49.1383 300.955 49.5898 302.333 49.5898ZM373.551 59H358.01L353.732 36.0449L352.734 28.7021H352.521L351.594 36.0449L347.316 59H331.775L322.151 2.82422H334.484L340.045 42.8174H340.401L341.542 36.1162L346.532 7.67188L358.723 7.81445C362.335 28.2031 364.378 39.8708 364.854 42.8174H365.281L370.699 2.82422H383.104L373.551 59ZM411.12 31.1973C411.12 29.1536 410.502 27.5615 409.267 26.4209C408.031 25.2327 406.558 24.6387 404.847 24.6387C403.136 24.6387 401.662 25.2327 400.427 26.4209C399.191 27.5615 398.573 29.1536 398.573 31.1973V43.0312C398.573 45.0749 399.191 46.6908 400.427 47.8789C401.662 49.0195 403.136 49.5898 404.847 49.5898C406.558 49.5898 408.031 49.0195 409.267 47.8789C410.502 46.6908 411.12 45.0749 411.12 43.0312V31.1973ZM386.882 30.4844C386.882 25.3516 388.664 21.3594 392.229 18.5078C395.793 15.6087 399.999 14.1592 404.847 14.1592C409.694 14.1592 413.9 15.6087 417.465 18.5078C421.029 21.3594 422.812 25.3516 422.812 30.4844V43.7441C422.812 48.877 421.029 52.8691 417.465 55.7207C413.9 58.5723 409.694 59.998 404.847 59.998C399.999 59.998 395.793 58.5723 392.229 55.7207C388.664 52.8691 386.882 48.877 386.882 43.7441V30.4844ZM429.156 15.2285H439.351L439.921 18.3652C442.582 15.5612 445.838 14.1592 449.688 14.1592C451.969 14.1592 454.107 14.4443 456.104 15.0146L451.256 25.4941C450.305 25.1139 449.212 24.9238 447.977 24.9238C445.98 24.9238 444.293 25.4704 442.915 26.5635C441.537 27.609 440.848 29.0111 440.848 30.7695V59H429.156V15.2285ZM459.668 0.614258H471.359V31.5537H473.142L480.698 15.2285H492.604L482.195 36.8291L493.53 59H480.912L472.714 42.3896H471.359V59H459.668V0.614258ZM497.309 15.2285H509V59H497.309V15.2285ZM497.309 0.614258H509V10.0957H497.309V0.614258ZM516.2 15.2285H526.395L526.965 18.3652C529.626 15.5612 532.882 14.1592 536.731 14.1592C540.486 14.1592 543.742 15.5612 546.498 18.3652C549.255 21.1693 550.633 25.0426 550.633 29.9854V59H539.013V30.7695C539.013 28.9635 538.466 27.5378 537.373 26.4922C536.28 25.4466 534.973 24.9238 533.452 24.9238C531.931 24.9238 530.624 25.4466 529.531 26.4922C528.438 27.5378 527.892 28.9635 527.892 30.7695V59H516.2V15.2285ZM560.114 69.9785L567.386 62.707C568.241 63.515 569.786 63.9189 572.02 63.9189C572.02 63.9189 572.21 63.9189 572.59 63.9189C574.206 63.9189 575.845 63.2061 577.509 61.7803C579.172 60.3545 580.146 58.596 580.432 56.5049C577.77 58.8337 574.61 59.998 570.95 59.998C566.958 59.998 563.512 58.5723 560.613 55.7207C557.714 52.8691 556.265 48.877 556.265 43.7441V30.4844C556.265 25.3516 557.714 21.3594 560.613 18.5078C563.56 15.6087 567.006 14.1592 570.95 14.1592C575.132 14.1592 578.602 15.6562 581.358 18.6504L581.929 15.2285H592.194V53.7246C592.194 60.0456 590.483 64.9408 587.062 68.4102C583.687 71.8796 578.863 73.6143 572.59 73.6143C567.41 73.6143 563.251 72.4023 560.114 69.9785ZM567.956 31.1973V43.0312C567.956 45.0749 568.574 46.6908 569.81 47.8789C571.045 49.0195 572.519 49.5898 574.229 49.5898C575.94 49.5898 577.414 49.0195 578.649 47.8789C579.885 46.6908 580.503 45.0749 580.503 43.0312V31.1973C580.503 29.1536 579.885 27.5615 578.649 26.4209C577.414 25.2327 575.94 24.6387 574.229 24.6387C572.519 24.6387 571.045 25.2327 569.81 26.4209C568.574 27.5615 567.956 29.1536 567.956 31.1973ZM1543.26 59.998C1539.17 59.998 1535.63 58.7148 1532.64 56.1484C1529.69 53.582 1528.22 50.0176 1528.22 45.4551V25.2803H1526.15V15.2285H1528.22V4.25H1539.91V15.2285H1546.11V25.2803H1539.91V45.4551C1539.91 48.2116 1540.91 49.5898 1542.91 49.5898C1543.52 49.5898 1544.19 49.471 1544.9 49.2334L1549.75 59.2139C1547.9 59.7367 1545.73 59.998 1543.26 59.998ZM1552.32 15.2285H1562.51L1563.08 18.3652C1565.74 15.5612 1569 14.1592 1572.85 14.1592C1575.13 14.1592 1577.27 14.4443 1579.26 15.0146L1574.42 25.4941C1573.46 25.1139 1572.37 24.9238 1571.14 24.9238C1569.14 24.9238 1567.45 25.4704 1566.07 26.5635C1564.7 27.609 1564.01 29.0111 1564.01 30.7695V59H1552.32V15.2285ZM1616.9 59H1606.71L1606.21 55.6494C1603.55 58.3584 1600.29 59.7129 1596.44 59.7129C1592.69 59.7129 1589.41 58.3346 1586.61 55.5781C1583.85 52.8216 1582.47 49.0195 1582.47 44.1719V15.2285H1594.16V43.459C1594.16 45.265 1594.71 46.6908 1595.8 47.7363C1596.89 48.7819 1598.2 49.3047 1599.72 49.3047C1601.2 49.3047 1602.48 48.7819 1603.57 47.7363C1604.67 46.6908 1605.21 45.265 1605.21 43.459V15.2285H1616.9V59ZM1634.58 41.249V43.0312C1634.58 45.0749 1635.18 46.6908 1636.37 47.8789C1637.6 49.0195 1639 49.5898 1640.57 49.5898C1641.95 49.5898 1643.23 49.1383 1644.42 48.2354C1645.66 47.3324 1646.39 46.168 1646.63 44.7422L1657.97 48.6631C1657.02 52.3226 1655.07 55.1266 1652.12 57.0752C1649.22 59.0238 1645.47 59.998 1640.86 59.998C1636.01 59.998 1631.8 58.5723 1628.24 55.7207C1624.67 52.8691 1622.89 48.877 1622.89 43.7441V30.4844C1622.89 25.3516 1624.67 21.3594 1628.24 18.5078C1631.8 15.6087 1636.01 14.1592 1640.86 14.1592C1645.7 14.1592 1649.91 15.6087 1653.47 18.5078C1657.04 21.3594 1658.82 25.3516 1658.82 30.4844V41.249H1634.58ZM1634.58 31.1973H1647.13C1647.13 29.1536 1646.51 27.5615 1645.28 26.4209C1644.04 25.2327 1642.57 24.6387 1640.86 24.6387C1639.15 24.6387 1637.67 25.2327 1636.44 26.4209C1635.2 27.5615 1634.58 29.1536 1634.58 31.1973Z" fill="#FF0000"/>
</svg>
