<?xml version="1.0" encoding="utf-8"?>
<!-- Generator: Adobe Illustrator 26.3.1, SVG Export Plug-In . SVG Version: 6.00 Build 0)  -->
<svg version="1.1" id="Layer_1" xmlns="http://www.w3.org/2000/svg" xmlns:xlink="http://www.w3.org/1999/xlink" x="0px" y="0px"
	 viewBox="0 0 500 500" style="enable-background:new 0 0 500 500;" xml:space="preserve">
<g id="ybECe7_00000164490243590061017630000010979358268009536655_">
	<g>
		<path d="M244.4,214.89c-9.39,1.14-18.32,2.22-27.44,3.33c-0.13,0.69-0.22,1.4-0.4,2.08c-0.89,3.26-3.87,4.5-6.72,2.55
			c-3.41-2.33-5.22-5.75-5.83-9.83c-1-6.71-2.08-13.41-3.08-20.12c-0.46-3.05-2.02-5.2-4.62-6.88c-1.02-0.66-1.46-2.21-2.17-3.36
			c1.3-0.42,2.58-1.12,3.89-1.17c1.56-0.05,3.28,0.14,4.67,0.79c9.53,4.42,19.27,1.36,28.92,0.89c4.12-0.2,8.22-0.79,12.73-1.24
			c0-6.22,0.13-12.36-0.14-18.48c-0.04-0.86-2-1.65-3.1-2.44c-1.02-0.74-2.06-1.44-3.09-2.16c0.83-0.87,1.5-2.06,2.51-2.56
			c5.29-2.6,11.74-1.41,15.74,2.9c0.69,0.75,1.45,2.42,1.09,3.01c-2.42,3.98-1.33,8.3-1.59,12.48c-0.12,1.9-0.02,3.82-0.02,6.31
			c3.99-0.29,8.06-0.53,12.11-0.9c5.61-0.51,11.21-1.07,16.8-1.74c1.65-0.2,3.38-0.59,4.82-1.36c2.63-1.4,5.09-1.38,7.55,0.12
			c2.53,1.55,5.14,3.03,7.46,4.86c2.38,1.89,1.99,3.11-0.4,4.99c-1.48,1.17-2.91,2.76-3.63,4.47c-2.77,6.64-5.23,13.41-7.84,20.11
			c-1.02,2.61-3.1,3.06-5.7,2.99c-9.98-0.24-19.97-0.29-29.96-0.48c-2.07-0.04-2.1,1.17-2.1,2.69c0.03,7.98,0.28,15.98-0.1,23.94
			c-0.19,4.06-1.31,8.13-2.47,12.05c-0.39,1.31-2.3,3.12-3.36,3.02c-1.23-0.12-2.95-1.91-3.29-3.27c-0.79-3.15-1.16-6.47-1.21-9.72
			C244.3,233.75,244.4,224.72,244.4,214.89z M255.32,187.77c0,6.14-0.07,11.76,0.1,17.37c0.02,0.64,1.41,1.81,2.12,1.77
			c8.87-0.49,17.73-1.15,26.75-1.78c1.55-6.48,3.09-12.9,4.82-20.11C277.51,185.96,266.66,186.84,255.32,187.77z M210.95,191.88
			c1.04,5.79,1.92,11.43,3.2,16.98c0.2,0.88,2.24,1.99,3.34,1.9c8.87-0.71,17.72-1.69,26.64-2.59c0-6.48,0-12.76,0-19.21
			C232.95,189.94,222.08,190.9,210.95,191.88z"/>
		<path d="M286.51,301.53c0-11.16-0.11-22.32,0.07-33.48c0.05-3.35-0.91-5.66-3.75-7.45c-0.93-0.59-1.27-2.1-1.89-3.2
			c1.14-0.38,2.41-1.28,3.4-1.05c4.32,1.01,9.19,0.11,12.75,3.91c1.46,1.56,1.94,2.62,0.84,4.64c-0.91,1.67-1.46,3.76-1.47,5.66
			c-0.1,22.43-0.07,44.85-0.07,67.28c0,1.06,0.03,2.13-0.05,3.19c-0.17,2.09-0.56,4.16-3.11,4.53c-2.52,0.36-4.5-0.83-5.33-3.12
			c-0.78-2.15-1.29-4.52-1.32-6.79c-0.13-11.37-0.06-22.75-0.06-34.12C286.52,301.53,286.52,301.53,286.51,301.53z"/>
		<path d="M212.17,262.87c3.91,1.64,7.82,3.13,11.59,4.91c1.86,0.88,2.08,2.43,1.38,4.57c-0.83,2.55-1.22,5.36-1.22,8.06
			c0,9.9-0.18,19.75-2.63,29.43c-3.08,12.2-11.71,20.19-21.02,27.59c-0.84,0.67-2.68,0.08-4.06,0.08c0.36-1.29,0.35-2.92,1.15-3.83
			c6.53-7.4,12.57-15.17,14.56-25.05c1.31-6.52,1.76-13.24,2.19-19.89c0.32-4.98-0.1-9.99,0-14.99c0.06-2.68-0.88-4.36-3.33-5.55
			c-1.01-0.49-1.58-1.91-2.34-2.91C209.51,264.6,210.57,263.91,212.17,262.87z"/>
		<path d="M257.67,297.14c0,7.24,0.04,14.47-0.03,21.71c-0.01,1.46-0.1,3.07-0.73,4.33c-0.69,1.38-1.89,3.1-3.17,3.41
			c-1.1,0.27-2.98-0.94-3.9-2.02c-2.42-2.86-3.63-6.17-2.53-10.05c0.34-1.2,0.3-2.53,0.3-3.8c0.02-12.88-0.02-25.75,0.06-38.63
			c0.02-2.61-0.67-4.46-3.2-5.62c-0.85-0.39-1.27-1.7-1.89-2.6c0.94-0.58,1.88-1.64,2.82-1.65c4.55-0.03,8.87,0.98,12.47,3.98
			c1.54,1.28,2.15,2.67,0.87,4.7c-0.73,1.16-1,2.79-1.02,4.21C257.62,282.46,257.67,289.8,257.67,297.14z"/>
	</g>
</g>
</svg>
