<svg width="167" height="150" viewBox="0 0 167 150" fill="none" xmlns="http://www.w3.org/2000/svg">
<path d="M26.2031 68.3906C26.2031 64.1719 27.2344 60.9375 29.2969 58.6875C31.3906 56.4375 34.4844 55.3125 38.5781 55.3125C42.6719 55.3125 45.75 56.4375 47.8125 58.6875C49.875 60.9375 50.9062 64.1719 50.9062 68.3906V80.6719C50.9062 84.8906 49.875 88.125 47.8125 90.375C45.75 92.5938 42.6719 93.7031 38.5781 93.7031C34.4844 93.7031 31.3906 92.5938 29.2969 90.375C27.2344 88.125 26.2031 84.8906 26.2031 80.6719V68.3906ZM43.0312 67.4062C43.0312 65.8438 42.5781 64.625 41.6719 63.75C40.7969 62.875 39.7656 62.4375 38.5781 62.4375C37.3906 62.4375 36.3438 62.875 35.4375 63.75C34.5625 64.625 34.125 65.8438 34.125 67.4062V81.6094C34.125 83.1719 34.5625 84.4062 35.4375 85.3125C36.3438 86.1875 37.3906 86.625 38.5781 86.625C39.7656 86.625 40.7969 86.1875 41.6719 85.3125C42.5781 84.4062 43.0312 83.1719 43.0312 81.6094V67.4062ZM54.9844 68.3906C54.9844 64.1719 56.0156 60.9375 58.0781 58.6875C60.1719 56.4375 63.2656 55.3125 67.3594 55.3125C71.4531 55.3125 74.5312 56.4375 76.5938 58.6875C78.6562 60.9375 79.6875 64.1719 79.6875 68.3906V80.6719C79.6875 84.8906 78.6562 88.125 76.5938 90.375C74.5312 92.5938 71.4531 93.7031 67.3594 93.7031C63.2656 93.7031 60.1719 92.5938 58.0781 90.375C56.0156 88.125 54.9844 84.8906 54.9844 80.6719V68.3906ZM71.8125 67.4062C71.8125 65.8438 71.3594 64.625 70.4531 63.75C69.5781 62.875 68.5469 62.4375 67.3594 62.4375C66.1719 62.4375 65.125 62.875 64.2188 63.75C63.3438 64.625 62.9062 65.8438 62.9062 67.4062V81.6094C62.9062 83.1719 63.3438 84.4062 64.2188 85.3125C65.125 86.1875 66.1719 86.625 67.3594 86.625C68.5469 86.625 69.5781 86.1875 70.4531 85.3125C71.3594 84.4062 71.8125 83.1719 71.8125 81.6094V67.4062ZM85.9219 65.8125H82.7344V61.5469L85.9219 56.0625H93.8438V93H85.9219V65.8125Z" fill="black"/>
<path d="M106.939 134.061C107.525 134.646 108.475 134.646 109.061 134.061L118.607 124.515C119.192 123.929 119.192 122.979 118.607 122.393C118.021 121.808 117.071 121.808 116.485 122.393L108 130.879L99.5147 122.393C98.9289 121.808 97.9792 121.808 97.3934 122.393C96.8076 122.979 96.8076 123.929 97.3934 124.515L106.939 134.061ZM106.5 16L106.5 133L109.5 133L109.5 16L106.5 16Z" fill="black"/>
<path d="M113.938 98.0078H116.73L116.887 98.8672C117.616 98.099 118.508 97.7148 119.562 97.7148C120.591 97.7148 121.483 98.099 122.238 98.8672C122.993 99.6354 123.371 100.697 123.371 102.051V110H120.188V102.266C120.188 101.771 120.038 101.38 119.738 101.094C119.439 100.807 119.081 100.664 118.664 100.664C118.247 100.664 117.889 100.807 117.59 101.094C117.29 101.38 117.141 101.771 117.141 102.266V110H113.938V98.0078ZM128.098 105.137V105.625C128.098 106.185 128.26 106.628 128.586 106.953C128.924 107.266 129.309 107.422 129.738 107.422C130.116 107.422 130.467 107.298 130.793 107.051C131.132 106.803 131.333 106.484 131.398 106.094L134.504 107.168C134.243 108.171 133.71 108.939 132.902 109.473C132.108 110.007 131.079 110.273 129.816 110.273C128.488 110.273 127.336 109.883 126.359 109.102C125.383 108.32 124.895 107.227 124.895 105.82V102.188C124.895 100.781 125.383 99.6875 126.359 98.9062C127.336 98.112 128.488 97.7148 129.816 97.7148C131.145 97.7148 132.297 98.112 133.273 98.9062C134.25 99.6875 134.738 100.781 134.738 102.188V105.137H128.098ZM128.098 102.383H131.535C131.535 101.823 131.366 101.387 131.027 101.074C130.689 100.749 130.285 100.586 129.816 100.586C129.348 100.586 128.944 100.749 128.605 101.074C128.267 101.387 128.098 101.823 128.098 102.383ZM142.16 98.0078H145.441L142.824 103.984L145.48 110H142.18L140.969 107.148L140.656 105.723H140.559L140.266 107.148L139.055 110H135.754L138.41 103.984L135.773 98.0078H139.055L140.266 100.82L140.559 102.246H140.656L140.969 100.82L142.16 98.0078ZM151.086 110.273C149.966 110.273 148.996 109.922 148.176 109.219C147.368 108.516 146.965 107.539 146.965 106.289V100.762H146.398V98.0078H146.965V95H150.168V98.0078H151.867V100.762H150.168V106.289C150.168 107.044 150.441 107.422 150.988 107.422C151.158 107.422 151.34 107.389 151.535 107.324L152.863 110.059C152.355 110.202 151.763 110.273 151.086 110.273Z" fill="black"/>
</svg>
