<svg width="167" height="150" viewBox="0 0 167 150" fill="none" xmlns="http://www.w3.org/2000/svg">
<path d="M14.2031 68.3906C14.2031 64.1719 15.2344 60.9375 17.2969 58.6875C19.3906 56.4375 22.4844 55.3125 26.5781 55.3125C30.6719 55.3125 33.75 56.4375 35.8125 58.6875C37.875 60.9375 38.9062 64.1719 38.9062 68.3906V80.6719C38.9062 84.8906 37.875 88.125 35.8125 90.375C33.75 92.5938 30.6719 93.7031 26.5781 93.7031C22.4844 93.7031 19.3906 92.5938 17.2969 90.375C15.2344 88.125 14.2031 84.8906 14.2031 80.6719V68.3906ZM31.0312 67.4062C31.0312 65.8438 30.5781 64.625 29.6719 63.75C28.7969 62.875 27.7656 62.4375 26.5781 62.4375C25.3906 62.4375 24.3438 62.875 23.4375 63.75C22.5625 64.625 22.125 65.8438 22.125 67.4062V81.6094C22.125 83.1719 22.5625 84.4062 23.4375 85.3125C24.3438 86.1875 25.3906 86.625 26.5781 86.625C27.7656 86.625 28.7969 86.1875 29.6719 85.3125C30.5781 84.4062 31.0312 83.1719 31.0312 81.6094V67.4062ZM42.9844 68.3906C42.9844 64.1719 44.0156 60.9375 46.0781 58.6875C48.1719 56.4375 51.2656 55.3125 55.3594 55.3125C59.4531 55.3125 62.5312 56.4375 64.5938 58.6875C66.6562 60.9375 67.6875 64.1719 67.6875 68.3906V80.6719C67.6875 84.8906 66.6562 88.125 64.5938 90.375C62.5312 92.5938 59.4531 93.7031 55.3594 93.7031C51.2656 93.7031 48.1719 92.5938 46.0781 90.375C44.0156 88.125 42.9844 84.8906 42.9844 80.6719V68.3906ZM59.8125 67.4062C59.8125 65.8438 59.3594 64.625 58.4531 63.75C57.5781 62.875 56.5469 62.4375 55.3594 62.4375C54.1719 62.4375 53.125 62.875 52.2188 63.75C51.3438 64.625 50.9062 65.8438 50.9062 67.4062V81.6094C50.9062 83.1719 51.3438 84.4062 52.2188 85.3125C53.125 86.1875 54.1719 86.625 55.3594 86.625C56.5469 86.625 57.5781 86.1875 58.4531 85.3125C59.3594 84.4062 59.8125 83.1719 59.8125 81.6094V67.4062ZM80.7656 85.875H94.875V93H71.3906V87.3281C71.3906 86.4531 71.5 85.625 71.7188 84.8438C71.9688 84.0625 72.2344 83.4062 72.5156 82.875C72.8281 82.3438 73.2969 81.75 73.9219 81.0938C74.5469 80.4375 75.0625 79.9375 75.4688 79.5938C75.9062 79.25 76.5625 78.7344 77.4375 78.0469C78.3125 77.3594 78.9688 76.8438 79.4062 76.5L81.0938 75.1875C82.1875 74.3125 82.8906 73.7188 83.2031 73.4062C83.5469 73.0625 84.0781 72.5 84.7969 71.7188C85.5469 70.9062 86.0625 70.1406 86.3438 69.4219C86.625 68.7031 86.7656 67.9531 86.7656 67.1719C86.7656 65.8906 86.4688 64.7812 85.875 63.8438C85.3125 62.9062 84.3281 62.4375 82.9219 62.4375C81.7969 62.4375 80.8125 62.7812 79.9688 63.4688C79.1562 64.125 78.6406 65.0781 78.4219 66.3281L70.9688 63.75C72.375 58.125 76.2812 55.3125 82.6875 55.3125C84.8125 55.3125 86.6562 55.625 88.2188 56.25C89.7812 56.8438 91 57.6719 91.875 58.7344C92.75 59.7969 93.3906 60.9688 93.7969 62.25C94.2031 63.5 94.4062 64.8594 94.4062 66.3281C94.4062 67.5469 94.2188 68.7344 93.8438 69.8906C93.5 71.0156 93.0938 71.9844 92.625 72.7969C92.1562 73.5781 91.4844 74.4219 90.6094 75.3281C89.7656 76.2344 89.0469 76.9375 88.4531 77.4375C87.8594 77.9062 87.0469 78.5469 86.0156 79.3594C84.9844 80.1719 84.2656 80.75 83.8594 81.0938C82.0781 82.5938 81.0469 84.1875 80.7656 85.875Z" fill="black"/>
<path d="M106.939 134.061C107.525 134.646 108.475 134.646 109.061 134.061L118.607 124.515C119.192 123.929 119.192 122.979 118.607 122.393C118.021 121.808 117.071 121.808 116.485 122.393L108 130.879L99.5147 122.393C98.9289 121.808 97.9792 121.808 97.3934 122.393C96.8076 122.979 96.8076 123.929 97.3934 124.515L106.939 134.061ZM106.5 16L106.5 133L109.5 133L109.5 16L106.5 16Z" fill="black"/>
<path d="M113.938 98.0078H116.73L116.887 98.8672C117.616 98.099 118.508 97.7148 119.562 97.7148C120.591 97.7148 121.483 98.099 122.238 98.8672C122.993 99.6354 123.371 100.697 123.371 102.051V110H120.188V102.266C120.188 101.771 120.038 101.38 119.738 101.094C119.439 100.807 119.081 100.664 118.664 100.664C118.247 100.664 117.889 100.807 117.59 101.094C117.29 101.38 117.141 101.771 117.141 102.266V110H113.938V98.0078ZM128.098 105.137V105.625C128.098 106.185 128.26 106.628 128.586 106.953C128.924 107.266 129.309 107.422 129.738 107.422C130.116 107.422 130.467 107.298 130.793 107.051C131.132 106.803 131.333 106.484 131.398 106.094L134.504 107.168C134.243 108.171 133.71 108.939 132.902 109.473C132.108 110.007 131.079 110.273 129.816 110.273C128.488 110.273 127.336 109.883 126.359 109.102C125.383 108.32 124.895 107.227 124.895 105.82V102.188C124.895 100.781 125.383 99.6875 126.359 98.9062C127.336 98.112 128.488 97.7148 129.816 97.7148C131.145 97.7148 132.297 98.112 133.273 98.9062C134.25 99.6875 134.738 100.781 134.738 102.188V105.137H128.098ZM128.098 102.383H131.535C131.535 101.823 131.366 101.387 131.027 101.074C130.689 100.749 130.285 100.586 129.816 100.586C129.348 100.586 128.944 100.749 128.605 101.074C128.267 101.387 128.098 101.823 128.098 102.383ZM142.16 98.0078H145.441L142.824 103.984L145.48 110H142.18L140.969 107.148L140.656 105.723H140.559L140.266 107.148L139.055 110H135.754L138.41 103.984L135.773 98.0078H139.055L140.266 100.82L140.559 102.246H140.656L140.969 100.82L142.16 98.0078ZM151.086 110.273C149.966 110.273 148.996 109.922 148.176 109.219C147.368 108.516 146.965 107.539 146.965 106.289V100.762H146.398V98.0078H146.965V95H150.168V98.0078H151.867V100.762H150.168V106.289C150.168 107.044 150.441 107.422 150.988 107.422C151.158 107.422 151.34 107.389 151.535 107.324L152.863 110.059C152.355 110.202 151.763 110.273 151.086 110.273Z" fill="black"/>
</svg>
